STARTFONT 2.1
FONT -Adobe-Times-Medium-I-Normal--17-120-100-100-P-84-ISO10646-1
SIZE 12 100 100
FONTBOUNDINGBOX 22 26 -4 -7
COMMENT $Xorg: $
COMMENT ISO10646-1 extension by Markus Kuhn <mkuhn@acm.org>, 2001-03-20
COMMENT 
COMMENT +
COMMENT  Copyright 1984-1989, 1994 Adobe Systems Incorporated.
COMMENT  Copyright 1988, 1994 Digital Equipment Corporation.
COMMENT
COMMENT  Adobe is a trademark of Adobe Systems Incorporated which may be
COMMENT  registered in certain jurisdictions.
COMMENT  Permission to use these trademarks is hereby granted only in
COMMENT  association with the images described in this file.
COMMENT
COMMENT  Permission to use, copy, modify, distribute and sell this software
COMMENT  and its documentation for any purpose and without fee is hereby
COMMENT  granted, provided that the above copyright notices appear in all
COMMENT  copies and that both those copyright notices and this permission
COMMENT  notice appear in supporting documentation, and that the names of
COMMENT  Adobe Systems and Digital Equipment Corporation not be used in
COMMENT  advertising or publicity pertaining to distribution of the software
COMMENT  without specific, written prior permission.  Adobe Systems and
COMMENT  Digital Equipment Corporation make no representations about the
COMMENT  suitability of this software for any purpose.  It is provided "as
COMMENT  is" without express or implied warranty.
COMMENT -
STARTPROPERTIES 26
FOUNDRY "Adobe"
FAMILY_NAME "Times"
WEIGHT_NAME "Medium"
SLANT "I"
SETWIDTH_NAME "Normal"
ADD_STYLE_NAME ""
PIXEL_SIZE 17
POINT_SIZE 120
RESOLUTION_X 100
RESOLUTION_Y 100
SPACING "P"
AVERAGE_WIDTH 84
CHARSET_REGISTRY "ISO10646"
CHARSET_ENCODING "1"
CAP_HEIGHT 11
X_HEIGHT 8
FONT_ASCENT 13
FONT_DESCENT 4
FACE_NAME "Times Italic"
COPYRIGHT "Copyright (c) 1984, 1987 Adobe Systems Incorporated. All Rights Reserved. Copyright (c) 1988, 1991 Digital Equipment Corporation. All Rights Reserved."

STARTCHAR char0
ENCODING 0
SWIDTH 722 0
DWIDTH 12 0
BBX 11 11 0 0
BITMAP
AAA0
0000
8020
0000
8020
0000
8020
0000
8020
0000
AAA0
ENDCHAR
STARTCHAR space
ENCODING 32
SWIDTH 250 0
DWIDTH 4 0
BBX 1 1 0 0
BITMAP
00
ENDCHAR
STARTCHAR exclam
ENCODING 33
SWIDTH 333 0
DWIDTH 6 0
BBX 4 11 0 0
BITMAP
10
10
30
20
20
60
40
40
00
80
80
ENDCHAR
STARTCHAR quotedbl
ENCODING 34
SWIDTH 420 0
DWIDTH 7 0
BBX 6 4 1 6
BITMAP
24
6C
48
90
ENDCHAR
STARTCHAR numbersign
ENCODING 35
SWIDTH 500 0
DWIDTH 8 0
BBX 8 11 0 0
BITMAP
12
12
12
7F
24
24
24
FE
48
48
48
ENDCHAR
STARTCHAR dollar
ENCODING 36
SWIDTH 500 0
DWIDTH 8 0
BBX 8 13 0 -1
BITMAP
04
1D
37
29
38
18
0C
0E
12
92
D4
B8
20
ENDCHAR
STARTCHAR percent
ENCODING 37
SWIDTH 833 0
DWIDTH 13 0
BBX 12 11 0 0
BITMAP
3080
4F00
8900
8A00
9200
6460
0490
0910
0910
1120
10C0
ENDCHAR
STARTCHAR ampersand
ENCODING 38
SWIDTH 778 0
DWIDTH 13 0
BBX 9 11 2 0
BITMAP
0C00
1200
1200
1400
1800
3380
5100
9A00
8C00
CE80
7300
ENDCHAR
STARTCHAR quotesingle
ENCODING 39
SWIDTH 214 0
DWIDTH 4 0
BBX 3 4 0 6
BITMAP
20
60
40
80
ENDCHAR
STARTCHAR parenleft
ENCODING 40
SWIDTH 333 0
DWIDTH 6 0
BBX 5 14 1 -3
BITMAP
08
10
20
40
40
80
80
80
80
80
80
40
40
20
ENDCHAR
STARTCHAR parenright
ENCODING 41
SWIDTH 333 0
DWIDTH 6 0
BBX 5 14 0 -3
BITMAP
20
10
10
08
08
08
08
08
08
10
10
20
40
80
ENDCHAR
STARTCHAR asterisk
ENCODING 42
SWIDTH 500 0
DWIDTH 8 0
BBX 5 6 2 5
BITMAP
20
A8
70
70
A8
20
ENDCHAR
STARTCHAR plus
ENCODING 43
SWIDTH 675 0
DWIDTH 11 0
BBX 9 9 1 0
BITMAP
0800
0800
0800
0800
FF80
0800
0800
0800
0800
ENDCHAR
STARTCHAR comma
ENCODING 44
SWIDTH 250 0
DWIDTH 4 0
BBX 3 4 0 -2
BITMAP
20
20
40
80
ENDCHAR
STARTCHAR hyphen
ENCODING 45
SWIDTH 333 0
DWIDTH 5 0
BBX 4 1 0 3
BITMAP
F0
ENDCHAR
STARTCHAR period
ENCODING 46
SWIDTH 250 0
DWIDTH 4 0
BBX 1 2 1 0
BITMAP
80
80
ENDCHAR
STARTCHAR slash
ENCODING 47
SWIDTH 278 0
DWIDTH 5 0
BBX 5 11 0 0
BITMAP
08
10
10
10
20
20
20
40
40
40
80
ENDCHAR
STARTCHAR zero
ENCODING 48
SWIDTH 500 0
DWIDTH 8 0
BBX 7 11 0 0
BITMAP
1C
26
42
42
82
82
82
84
84
C8
70
ENDCHAR
STARTCHAR one
ENCODING 49
SWIDTH 500 0
DWIDTH 8 0
BBX 6 11 1 0
BITMAP
04
1C
08
08
18
10
10
30
20
20
F0
ENDCHAR
STARTCHAR two
ENCODING 50
SWIDTH 500 0
DWIDTH 8 0
BBX 8 11 -1 0
BITMAP
1E
23
01
01
02
04
08
10
20
42
FC
ENDCHAR
STARTCHAR three
ENCODING 51
SWIDTH 500 0
DWIDTH 8 0
BBX 7 11 0 0
BITMAP
1C
26
02
04
38
0C
04
04
04
88
70
ENDCHAR
STARTCHAR four
ENCODING 52
SWIDTH 500 0
DWIDTH 8 0
BBX 7 11 0 0
BITMAP
02
06
0A
16
24
44
88
FE
08
18
10
ENDCHAR
STARTCHAR five
ENCODING 53
SWIDTH 500 0
DWIDTH 8 0
BBX 7 11 0 0
BITMAP
1E
10
20
78
0C
04
04
04
04
88
70
ENDCHAR
STARTCHAR six
ENCODING 54
SWIDTH 500 0
DWIDTH 8 0
BBX 7 11 1 0
BITMAP
06
18
20
40
B8
C4
84
84
84
48
30
ENDCHAR
STARTCHAR seven
ENCODING 55
SWIDTH 500 0
DWIDTH 8 0
BBX 7 11 1 0
BITMAP
7E
82
04
08
08
10
20
20
40
80
80
ENDCHAR
STARTCHAR eight
ENCODING 56
SWIDTH 500 0
DWIDTH 8 0
BBX 7 11 0 0
BITMAP
1C
22
22
32
1C
38
4C
84
84
88
70
ENDCHAR
STARTCHAR nine
ENCODING 57
SWIDTH 500 0
DWIDTH 8 0
BBX 7 11 0 0
BITMAP
18
24
42
42
42
46
3A
04
08
30
C0
ENDCHAR
STARTCHAR colon
ENCODING 58
SWIDTH 333 0
DWIDTH 5 0
BBX 3 7 1 0
BITMAP
20
20
00
00
00
80
80
ENDCHAR
STARTCHAR semicolon
ENCODING 59
SWIDTH 333 0
DWIDTH 5 0
BBX 4 9 0 -2
BITMAP
10
10
00
00
00
20
20
40
80
ENDCHAR
STARTCHAR less
ENCODING 60
SWIDTH 675 0
DWIDTH 11 0
BBX 9 9 1 0
BITMAP
0180
0600
1800
6000
8000
6000
1800
0600
0180
ENDCHAR
STARTCHAR equal
ENCODING 61
SWIDTH 675 0
DWIDTH 11 0
BBX 8 4 1 2
BITMAP
FF
00
00
FF
ENDCHAR
STARTCHAR greater
ENCODING 62
SWIDTH 675 0
DWIDTH 11 0
BBX 9 9 2 0
BITMAP
C000
3000
0C00
0300
0080
0300
0C00
3000
C000
ENDCHAR
STARTCHAR question
ENCODING 63
SWIDTH 500 0
DWIDTH 8 0
BBX 5 11 2 0
BITMAP
70
88
88
08
10
20
40
40
00
80
80
ENDCHAR
STARTCHAR at
ENCODING 64
SWIDTH 920 0
DWIDTH 15 0
BBX 13 14 1 -3
BITMAP
0780
1860
2030
4350
44C8
8888
8888
9188
9190
92A0
4CC0
4000
3060
0F80
ENDCHAR
STARTCHAR A
ENCODING 65
SWIDTH 611 0
DWIDTH 10 0
BBX 10 11 -1 0
BITMAP
0080
0180
0280
0480
0880
0880
1F80
2080
2080
4080
E1C0
ENDCHAR
STARTCHAR B
ENCODING 66
SWIDTH 611 0
DWIDTH 10 0
BBX 9 11 0 0
BITMAP
1F00
0980
1880
1080
1100
3E00
2300
2100
6100
4200
FC00
ENDCHAR
STARTCHAR C
ENCODING 67
SWIDTH 667 0
DWIDTH 11 0
BBX 10 11 1 0
BITMAP
0740
18C0
2040
4000
4000
8000
8000
8000
C080
6100
3E00
ENDCHAR
STARTCHAR D
ENCODING 68
SWIDTH 722 0
DWIDTH 12 0
BBX 11 11 0 0
BITMAP
1F80
0840
1820
1020
1020
3020
2040
2040
6080
4300
FC00
ENDCHAR
STARTCHAR E
ENCODING 69
SWIDTH 611 0
DWIDTH 10 0
BBX 10 11 0 0
BITMAP
1FC0
0840
1800
1000
1100
3E00
2200
2000
6080
4180
FF00
ENDCHAR
STARTCHAR F
ENCODING 70
SWIDTH 611 0
DWIDTH 10 0
BBX 10 11 0 0
BITMAP
1FC0
0840
1800
1000
1100
3E00
2200
2000
6000
4000
E000
ENDCHAR
STARTCHAR G
ENCODING 71
SWIDTH 722 0
DWIDTH 12 0
BBX 11 11 0 0
BITMAP
0740
18C0
2040
4000
4000
81E0
80C0
8080
C080
6100
3E00
ENDCHAR
STARTCHAR H
ENCODING 72
SWIDTH 722 0
DWIDTH 12 0
BBX 12 11 0 0
BITMAP
1C70
0820
1860
1040
1040
3FC0
2080
2080
6180
4100
E380
ENDCHAR
STARTCHAR I
ENCODING 73
SWIDTH 333 0
DWIDTH 6 0
BBX 6 11 0 0
BITMAP
1C
08
18
10
10
30
20
20
60
40
E0
ENDCHAR
STARTCHAR J
ENCODING 74
SWIDTH 444 0
DWIDTH 7 0
BBX 7 11 0 0
BITMAP
0E
04
0C
08
08
18
10
10
B0
A0
40
ENDCHAR
STARTCHAR K
ENCODING 75
SWIDTH 667 0
DWIDTH 11 0
BBX 10 11 0 0
BITMAP
1DC0
0880
1900
1200
1400
3C00
2400
2600
6200
4300
E780
ENDCHAR
STARTCHAR L
ENCODING 76
SWIDTH 556 0
DWIDTH 9 0
BBX 9 11 0 0
BITMAP
1C00
0800
1800
1000
1000
3000
2000
2000
6080
4180
FF00
ENDCHAR
STARTCHAR M
ENCODING 77
SWIDTH 833 0
DWIDTH 14 0
BBX 15 11 0 0
BITMAP
1C0E
0C0C
1414
1428
1448
2498
2490
2510
4630
4620
E470
ENDCHAR
STARTCHAR N
ENCODING 78
SWIDTH 667 0
DWIDTH 11 0
BBX 13 11 -1 0
BITMAP
1838
0810
1C10
1420
1620
2220
2340
2140
41C0
4080
E080
ENDCHAR
STARTCHAR O
ENCODING 79
SWIDTH 722 0
DWIDTH 12 0
BBX 10 11 1 0
BITMAP
0E00
3180
4080
40C0
8040
8040
80C0
C080
4180
6300
1C00
ENDCHAR
STARTCHAR P
ENCODING 80
SWIDTH 611 0
DWIDTH 10 0
BBX 10 11 0 0
BITMAP
1F80
0840
1840
1040
1180
3E00
2000
2000
6000
4000
E000
ENDCHAR
STARTCHAR Q
ENCODING 81
SWIDTH 722 0
DWIDTH 12 0
BBX 10 14 1 -3
BITMAP
0600
1980
2080
40C0
4040
8040
8080
C080
4100
6600
1800
2000
7C80
8F00
ENDCHAR
STARTCHAR R
ENCODING 82
SWIDTH 611 0
DWIDTH 10 0
BBX 10 11 0 0
BITMAP
1F80
0840
1840
1040
1180
3E00
2400
2200
6300
4100
E180
ENDCHAR
STARTCHAR S
ENCODING 83
SWIDTH 500 0
DWIDTH 8 0
BBX 8 11 0 0
BITMAP
1D
33
21
30
18
0C
06
02
82
C4
B8
ENDCHAR
STARTCHAR T
ENCODING 84
SWIDTH 556 0
DWIDTH 9 0
BBX 9 11 1 0
BITMAP
FF80
8880
1800
1000
1000
3000
2000
2000
6000
4000
E000
ENDCHAR
STARTCHAR U
ENCODING 85
SWIDTH 722 0
DWIDTH 12 0
BBX 10 11 2 0
BITMAP
71C0
2080
6080
4100
4100
C100
8200
8200
8200
8400
7800
ENDCHAR
STARTCHAR V
ENCODING 86
SWIDTH 611 0
DWIDTH 10 0
BBX 10 11 1 0
BITMAP
F1C0
4080
4100
6100
6200
2400
2400
2800
3000
3000
2000
ENDCHAR
STARTCHAR W
ENCODING 87
SWIDTH 833 0
DWIDTH 14 0
BBX 15 11 0 0
BITMAP
E70E
4204
4208
6308
6710
2520
2920
3140
3180
2180
2100
ENDCHAR
STARTCHAR X
ENCODING 88
SWIDTH 611 0
DWIDTH 10 0
BBX 10 11 0 0
BITMAP
79C0
3080
1100
1A00
0A00
0C00
1400
1600
2200
4300
E780
ENDCHAR
STARTCHAR Y
ENCODING 89
SWIDTH 556 0
DWIDTH 9 0
BBX 9 11 1 0
BITMAP
E380
4100
6200
2400
2800
1000
1000
3000
2000
2000
7000
ENDCHAR
STARTCHAR Z
ENCODING 90
SWIDTH 556 0
DWIDTH 9 0
BBX 9 11 0 0
BITMAP
3F80
4300
0200
0400
0C00
0800
1800
1000
2000
6100
FE00
ENDCHAR
STARTCHAR bracketleft
ENCODING 91
SWIDTH 389 0
DWIDTH 6 0
BBX 6 14 0 -3
BITMAP
1C
10
10
30
20
20
60
40
40
40
C0
80
80
E0
ENDCHAR
STARTCHAR backslash
ENCODING 92
SWIDTH 278 0
DWIDTH 5 0
BBX 5 11 -1 0
BITMAP
80
40
40
40
20
20
20
10
10
10
08
ENDCHAR
STARTCHAR bracketright
ENCODING 93
SWIDTH 389 0
DWIDTH 6 0
BBX 6 14 0 -3
BITMAP
1C
04
04
0C
08
08
08
18
10
10
30
20
20
E0
ENDCHAR
STARTCHAR asciicircum
ENCODING 94
SWIDTH 422 0
DWIDTH 7 0
BBX 7 7 0 4
BITMAP
10
28
28
44
44
82
82
ENDCHAR
STARTCHAR underscore
ENCODING 95
SWIDTH 500 0
DWIDTH 8 0
BBX 8 1 0 -4
BITMAP
FF
ENDCHAR
STARTCHAR grave
ENCODING 96
SWIDTH 333 0
DWIDTH 6 0
BBX 3 3 1 9
BITMAP
C0
40
20
ENDCHAR
STARTCHAR a
ENCODING 97
SWIDTH 500 0
DWIDTH 8 0
BBX 7 8 0 0
BITMAP
1A
26
44
C4
8C
88
9A
64
ENDCHAR
STARTCHAR b
ENCODING 98
SWIDTH 500 0
DWIDTH 8 0
BBX 7 11 0 0
BITMAP
30
10
30
2C
32
62
42
46
C4
C8
B0
ENDCHAR
STARTCHAR c
ENCODING 99
SWIDTH 444 0
DWIDTH 7 0
BBX 6 8 0 0
BITMAP
18
64
40
C0
80
80
C8
70
ENDCHAR
STARTCHAR d
ENCODING 100
SWIDTH 500 0
DWIDTH 8 0
BBX 8 11 0 0
BITMAP
03
01
03
1A
26
44
C4
8C
8C
95
62
ENDCHAR
STARTCHAR e
ENCODING 101
SWIDTH 444 0
DWIDTH 7 0
BBX 6 8 1 0
BITMAP
18
64
44
98
E0
80
C8
70
ENDCHAR
STARTCHAR f
ENCODING 102
SWIDTH 278 0
DWIDTH 5 0
BBX 8 15 -2 -4
BITMAP
03
05
04
04
3E
08
08
18
10
10
30
20
20
A0
C0
ENDCHAR
STARTCHAR g
ENCODING 103
SWIDTH 500 0
DWIDTH 8 0
BBX 8 12 0 -4
BITMAP
1C
33
22
22
26
1C
20
38
CC
84
8C
78
ENDCHAR
STARTCHAR h
ENCODING 104
SWIDTH 500 0
DWIDTH 8 0
BBX 7 11 0 0
BITMAP
30
10
30
26
2A
72
66
44
CC
8A
8C
ENDCHAR
STARTCHAR i
ENCODING 105
SWIDTH 278 0
DWIDTH 5 0
BBX 4 11 1 0
BITMAP
10
10
00
20
60
20
60
40
C0
A0
C0
ENDCHAR
STARTCHAR j
ENCODING 106
SWIDTH 278 0
DWIDTH 5 0
BBX 7 15 -3 -4
BITMAP
02
02
00
06
02
06
04
04
0C
08
08
18
10
B0
60
ENDCHAR
STARTCHAR k
ENCODING 107
SWIDTH 444 0
DWIDTH 7 0
BBX 7 11 0 0
BITMAP
30
10
30
26
24
68
50
70
D8
8A
8C
ENDCHAR
STARTCHAR l
ENCODING 108
SWIDTH 278 0
DWIDTH 5 0
BBX 4 11 1 0
BITMAP
30
10
30
20
20
60
40
40
C0
A0
C0
ENDCHAR
STARTCHAR m
ENCODING 109
SWIDTH 722 0
DWIDTH 12 0
BBX 11 8 0 0
BITMAP
6660
2AA0
3320
6660
4440
CCC0
88A0
88C0
ENDCHAR
STARTCHAR n
ENCODING 110
SWIDTH 500 0
DWIDTH 8 0
BBX 7 8 0 0
BITMAP
66
2A
32
66
44
CC
8A
8C
ENDCHAR
STARTCHAR o
ENCODING 111
SWIDTH 500 0
DWIDTH 8 0
BBX 7 8 0 0
BITMAP
1C
66
42
C2
86
84
CC
70
ENDCHAR
STARTCHAR p
ENCODING 112
SWIDTH 500 0
DWIDTH 8 0
BBX 9 12 -2 -4
BITMAP
1B00
0C80
1880
1080
1180
3100
3200
2C00
6000
4000
4000
E000
ENDCHAR
STARTCHAR q
ENCODING 113
SWIDTH 500 0
DWIDTH 8 0
BBX 7 12 0 -4
BITMAP
1A
26
44
C4
8C
88
98
68
08
18
10
38
ENDCHAR
STARTCHAR r
ENCODING 114
SWIDTH 389 0
DWIDTH 6 0
BBX 6 8 0 0
BITMAP
64
2C
30
60
40
C0
80
80
ENDCHAR
STARTCHAR s
ENCODING 115
SWIDTH 389 0
DWIDTH 6 0
BBX 5 8 0 0
BITMAP
38
48
40
60
30
10
90
E0
ENDCHAR
STARTCHAR t
ENCODING 116
SWIDTH 278 0
DWIDTH 5 0
BBX 5 10 0 0
BITMAP
10
10
78
20
60
40
40
80
A0
C0
ENDCHAR
STARTCHAR u
ENCODING 117
SWIDTH 500 0
DWIDTH 8 0
BBX 7 8 0 0
BITMAP
62
22
66
44
CC
98
AA
CC
ENDCHAR
STARTCHAR v
ENCODING 118
SWIDTH 444 0
DWIDTH 7 0
BBX 7 8 0 0
BITMAP
C6
42
42
64
64
28
30
20
ENDCHAR
STARTCHAR w
ENCODING 119
SWIDTH 667 0
DWIDTH 11 0
BBX 11 8 0 0
BITMAP
4260
C220
4620
6640
6A40
2A80
3300
2200
ENDCHAR
STARTCHAR x
ENCODING 120
SWIDTH 444 0
DWIDTH 7 0
BBX 7 8 0 0
BITMAP
66
28
18
18
18
28
2A
C4
ENDCHAR
STARTCHAR y
ENCODING 121
SWIDTH 444 0
DWIDTH 7 0
BBX 7 12 -1 -4
BITMAP
66
22
22
32
14
14
18
18
10
20
A0
C0
ENDCHAR
STARTCHAR z
ENCODING 122
SWIDTH 389 0
DWIDTH 6 0
BBX 6 8 0 0
BITMAP
7C
84
08
10
30
20
44
F8
ENDCHAR
STARTCHAR braceleft
ENCODING 123
SWIDTH 400 0
DWIDTH 7 0
BBX 6 14 1 -3
BITMAP
0C
10
20
20
20
20
C0
40
40
40
80
80
80
40
ENDCHAR
STARTCHAR bar
ENCODING 124
SWIDTH 275 0
DWIDTH 5 0
BBX 5 14 0 -3
BITMAP
08
08
10
10
10
20
20
20
40
40
40
80
80
80
ENDCHAR
STARTCHAR braceright
ENCODING 125
SWIDTH 400 0
DWIDTH 7 0
BBX 6 14 -1 -3
BITMAP
08
04
04
04
08
08
08
0C
10
10
10
10
20
C0
ENDCHAR
STARTCHAR asciitilde
ENCODING 126
SWIDTH 541 0
DWIDTH 9 0
BBX 8 3 0 3
BITMAP
70
99
0E
ENDCHAR
STARTCHAR space
ENCODING 160
SWIDTH 250 0
DWIDTH 4 0
BBX 1 1 0 0
BITMAP
00
ENDCHAR
STARTCHAR exclamdown
ENCODING 161
SWIDTH 389 0
DWIDTH 6 0
BBX 4 11 1 -3
BITMAP
10
10
00
20
20
60
40
40
C0
80
80
ENDCHAR
STARTCHAR cent
ENCODING 162
SWIDTH 500 0
DWIDTH 8 0
BBX 6 10 0 -1
BITMAP
08
1C
6C
50
D0
A0
A0
E8
70
40
ENDCHAR
STARTCHAR sterling
ENCODING 163
SWIDTH 500 0
DWIDTH 8 0
BBX 8 11 -1 0
BITMAP
06
0D
08
18
10
3C
10
10
71
96
6C
ENDCHAR
STARTCHAR currency
ENCODING 164
SWIDTH 500 0
DWIDTH 8 0
BBX 6 7 1 2
BITMAP
B4
78
CC
84
CC
78
B4
ENDCHAR
STARTCHAR yen
ENCODING 165
SWIDTH 500 0
DWIDTH 8 0
BBX 9 11 1 0
BITMAP
E380
4100
6200
2400
2800
FC00
2000
F800
4000
4000
E000
ENDCHAR
STARTCHAR brokenbar
ENCODING 166
SWIDTH 275 0
DWIDTH 5 0
BBX 5 14 0 -3
BITMAP
08
10
10
10
20
20
00
00
40
40
40
80
80
80
ENDCHAR
STARTCHAR section
ENCODING 167
SWIDTH 500 0
DWIDTH 8 0
BBX 7 13 0 -1
BITMAP
1C
22
22
30
58
4C
44
64
38
08
88
88
70
ENDCHAR
STARTCHAR dieresis
ENCODING 168
SWIDTH 333 0
DWIDTH 6 0
BBX 3 2 1 9
BITMAP
A0
A0
ENDCHAR
STARTCHAR copyright
ENCODING 169
SWIDTH 760 0
DWIDTH 13 0
BBX 12 11 1 0
BITMAP
0F00
30C0
4620
4920
9010
9010
9010
4920
4620
30C0
0F00
ENDCHAR
STARTCHAR ordfeminine
ENCODING 170
SWIDTH 276 0
DWIDTH 5 0
BBX 5 6 0 5
BITMAP
70
90
B0
D8
00
F8
ENDCHAR
STARTCHAR guillemotleft
ENCODING 171
SWIDTH 500 0
DWIDTH 8 0
BBX 7 6 0 0
BITMAP
12
24
48
90
48
24
ENDCHAR
STARTCHAR logicalnot
ENCODING 172
SWIDTH 675 0
DWIDTH 11 0
BBX 8 5 1 1
BITMAP
FF
01
01
01
01
ENDCHAR
STARTCHAR hyphen
ENCODING 173
SWIDTH 333 0
DWIDTH 5 0
BBX 4 1 0 3
BITMAP
F0
ENDCHAR
STARTCHAR registered
ENCODING 174
SWIDTH 760 0
DWIDTH 13 0
BBX 12 11 1 0
BITMAP
0F00
30C0
4F20
48A0
8890
8F10
8910
48A0
48A0
30C0
0F00
ENDCHAR
STARTCHAR macron
ENCODING 175
SWIDTH 333 0
DWIDTH 6 0
BBX 4 1 1 9
BITMAP
F0
ENDCHAR
STARTCHAR degree
ENCODING 176
SWIDTH 400 0
DWIDTH 7 0
BBX 5 5 1 6
BITMAP
70
88
88
88
70
ENDCHAR
STARTCHAR plusminus
ENCODING 177
SWIDTH 675 0
DWIDTH 11 0
BBX 9 11 1 0
BITMAP
0800
0800
0800
0800
FF80
0800
0800
0800
0800
0000
FF80
ENDCHAR
STARTCHAR twosuperior
ENCODING 178
SWIDTH 300 0
DWIDTH 5 0
BBX 5 7 0 4
BITMAP
30
48
08
10
20
48
F0
ENDCHAR
STARTCHAR threesuperior
ENCODING 179
SWIDTH 300 0
DWIDTH 5 0
BBX 5 7 0 4
BITMAP
30
48
08
30
08
88
70
ENDCHAR
STARTCHAR acute
ENCODING 180
SWIDTH 333 0
DWIDTH 6 0
BBX 3 3 1 9
BITMAP
60
40
80
ENDCHAR
STARTCHAR mu
ENCODING 181
SWIDTH 500 0
DWIDTH 8 0
BBX 8 12 -1 -4
BITMAP
31
11
33
22
66
4C
55
66
C0
80
80
80
ENDCHAR
STARTCHAR paragraph
ENCODING 182
SWIDTH 523 0
DWIDTH 9 0
BBX 8 14 1 -3
BITMAP
0F
32
74
F4
F4
E4
68
28
28
48
50
50
90
A0
ENDCHAR
STARTCHAR periodcentered
ENCODING 183
SWIDTH 250 0
DWIDTH 4 0
BBX 1 2 2 3
BITMAP
80
80
ENDCHAR
STARTCHAR cedilla
ENCODING 184
SWIDTH 333 0
DWIDTH 6 0
BBX 4 4 1 -3
BITMAP
20
20
90
60
ENDCHAR
STARTCHAR onesuperior
ENCODING 185
SWIDTH 300 0
DWIDTH 5 0
BBX 3 7 1 4
BITMAP
20
60
20
20
40
40
E0
ENDCHAR
STARTCHAR ordmasculine
ENCODING 186
SWIDTH 310 0
DWIDTH 5 0
BBX 4 6 0 5
BITMAP
70
90
90
E0
00
F0
ENDCHAR
STARTCHAR guillemotright
ENCODING 187
SWIDTH 500 0
DWIDTH 8 0
BBX 7 6 0 0
BITMAP
48
24
12
24
48
90
ENDCHAR
STARTCHAR onequarter
ENCODING 188
SWIDTH 750 0
DWIDTH 13 0
BBX 11 11 1 0
BITMAP
2080
6100
2100
2200
4220
4460
E4E0
0940
0A40
13E0
1080
ENDCHAR
STARTCHAR onehalf
ENCODING 189
SWIDTH 750 0
DWIDTH 13 0
BBX 12 11 0 0
BITMAP
2080
6100
2100
2200
4260
4490
E410
0820
0840
1090
11E0
ENDCHAR
STARTCHAR threequarters
ENCODING 190
SWIDTH 750 0
DWIDTH 13 0
BBX 12 11 0 0
BITMAP
3040
4880
0880
3100
0910
8A30
7270
04A0
0520
09F0
0840
ENDCHAR
STARTCHAR questiondown
ENCODING 191
SWIDTH 500 0
DWIDTH 8 0
BBX 5 11 1 -3
BITMAP
08
08
00
10
10
20
40
80
88
88
70
ENDCHAR
STARTCHAR Agrave
ENCODING 192
SWIDTH 611 0
DWIDTH 10 0
BBX 10 15 -1 0
BITMAP
0300
0100
0080
0000
0080
0180
0280
0480
0880
0880
1F80
2080
2080
4080
E1C0
ENDCHAR
STARTCHAR Aacute
ENCODING 193
SWIDTH 611 0
DWIDTH 10 0
BBX 11 15 -1 0
BITMAP
0060
0040
0080
0000
0080
0180
0280
0480
0880
0880
1F80
2080
2080
4080
E1C0
ENDCHAR
STARTCHAR Acircumflex
ENCODING 194
SWIDTH 611 0
DWIDTH 10 0
BBX 11 15 -1 0
BITMAP
0080
01C0
0220
0000
0080
0180
0280
0480
0880
0880
1F80
2080
2080
4080
E1C0
ENDCHAR
STARTCHAR Atilde
ENCODING 195
SWIDTH 611 0
DWIDTH 10 0
BBX 12 14 -1 0
BITMAP
0190
0260
0000
0080
0180
0280
0480
0880
0880
1F80
2080
2080
4080
E1C0
ENDCHAR
STARTCHAR Adieresis
ENCODING 196
SWIDTH 611 0
DWIDTH 10 0
BBX 11 14 -1 0
BITMAP
0220
0220
0000
0080
0180
0280
0480
0880
0880
1F80
2080
2080
4080
E1C0
ENDCHAR
STARTCHAR Aring
ENCODING 197
SWIDTH 611 0
DWIDTH 10 0
BBX 11 15 -1 0
BITMAP
00C0
0120
0120
00C0
0080
0180
0280
0480
0880
0880
1F80
2080
2080
4080
E1C0
ENDCHAR
STARTCHAR AE
ENCODING 198
SWIDTH 889 0
DWIDTH 15 0
BBX 16 11 -1 0
BITMAP
01FF
00E1
0160
0240
0444
08F8
1F88
1080
2182
4106
E3FC
ENDCHAR
STARTCHAR Ccedilla
ENCODING 199
SWIDTH 667 0
DWIDTH 11 0
BBX 10 14 1 -3
BITMAP
0740
18C0
2040
4000
4000
8000
8000
8000
C080
6100
3E00
0800
2400
1800
ENDCHAR
STARTCHAR Egrave
ENCODING 200
SWIDTH 611 0
DWIDTH 10 0
BBX 10 15 0 0
BITMAP
0600
0200
0100
0000
1FC0
0840
1800
1000
1100
3E00
2200
2000
6080
4180
FF00
ENDCHAR
STARTCHAR Eacute
ENCODING 201
SWIDTH 611 0
DWIDTH 10 0
BBX 10 15 0 0
BITMAP
0180
0100
0200
0000
1FC0
0840
1800
1000
1100
3E00
2200
2000
6080
4180
FF00
ENDCHAR
STARTCHAR Ecircumflex
ENCODING 202
SWIDTH 611 0
DWIDTH 10 0
BBX 10 15 0 0
BITMAP
0100
0380
0440
0000
1FC0
0840
1800
1000
1100
3E00
2200
2000
6080
4180
FF00
ENDCHAR
STARTCHAR Edieresis
ENCODING 203
SWIDTH 611 0
DWIDTH 10 0
BBX 10 14 0 0
BITMAP
0480
0480
0000
1FC0
0840
1800
1000
1100
3E00
2200
2000
6080
4180
FF00
ENDCHAR
STARTCHAR Igrave
ENCODING 204
SWIDTH 333 0
DWIDTH 6 0
BBX 6 15 0 0
BITMAP
18
08
04
00
1C
08
18
10
10
30
20
20
60
40
E0
ENDCHAR
STARTCHAR Iacute
ENCODING 205
SWIDTH 333 0
DWIDTH 6 0
BBX 7 15 0 0
BITMAP
06
04
08
00
1C
08
18
10
10
30
20
20
60
40
E0
ENDCHAR
STARTCHAR Icircumflex
ENCODING 206
SWIDTH 333 0
DWIDTH 6 0
BBX 8 15 0 0
BITMAP
04
0E
11
00
1C
08
18
10
10
30
20
20
60
40
E0
ENDCHAR
STARTCHAR Idieresis
ENCODING 207
SWIDTH 333 0
DWIDTH 6 0
BBX 7 14 0 0
BITMAP
12
12
00
1C
08
18
10
10
30
20
20
60
40
E0
ENDCHAR
STARTCHAR Eth
ENCODING 208
SWIDTH 722 0
DWIDTH 12 0
BBX 11 11 0 0
BITMAP
1F80
0840
1820
1020
1020
7820
2040
2040
6080
4300
FC00
ENDCHAR
STARTCHAR Ntilde
ENCODING 209
SWIDTH 667 0
DWIDTH 11 0
BBX 13 14 -1 0
BITMAP
0320
04C0
0000
1838
0810
1C10
1420
1620
2220
2340
2140
41C0
4080
E080
ENDCHAR
STARTCHAR Ograve
ENCODING 210
SWIDTH 722 0
DWIDTH 12 0
BBX 10 15 1 0
BITMAP
0C00
0400
0200
0000
0E00
3180
4080
40C0
8040
8040
80C0
C080
4180
6300
1C00
ENDCHAR
STARTCHAR Oacute
ENCODING 211
SWIDTH 722 0
DWIDTH 12 0
BBX 10 15 1 0
BITMAP
0300
0200
0400
0000
0E00
3180
4080
40C0
8040
8040
80C0
C080
4180
6300
1C00
ENDCHAR
STARTCHAR Ocircumflex
ENCODING 212
SWIDTH 722 0
DWIDTH 12 0
BBX 10 15 1 0
BITMAP
0200
0700
0880
0000
0E00
3180
4080
40C0
8040
8040
80C0
C080
4180
6300
1C00
ENDCHAR
STARTCHAR Otilde
ENCODING 213
SWIDTH 722 0
DWIDTH 12 0
BBX 10 14 1 0
BITMAP
0C80
1300
0000
0E00
3180
4080
40C0
8040
8040
80C0
C080
4180
6300
1C00
ENDCHAR
STARTCHAR Odieresis
ENCODING 214
SWIDTH 722 0
DWIDTH 12 0
BBX 10 14 1 0
BITMAP
0900
0900
0000
0E00
3180
4080
40C0
8040
8040
80C0
C080
4180
6300
1C00
ENDCHAR
STARTCHAR multiply
ENCODING 215
SWIDTH 675 0
DWIDTH 11 0
BBX 9 9 1 0
BITMAP
8080
4100
2200
1400
0800
1400
2200
4100
8080
ENDCHAR
STARTCHAR Oslash
ENCODING 216
SWIDTH 722 0
DWIDTH 12 0
BBX 10 13 1 -1
BITMAP
0080
0700
1980
2280
44C0
4440
8840
8880
D080
5100
6600
3800
4000
ENDCHAR
STARTCHAR Ugrave
ENCODING 217
SWIDTH 722 0
DWIDTH 12 0
BBX 10 15 2 0
BITMAP
0C00
0400
0200
0000
71C0
2080
6080
4100
4100
C100
8200
8200
8200
8400
7800
ENDCHAR
STARTCHAR Uacute
ENCODING 218
SWIDTH 722 0
DWIDTH 12 0
BBX 10 15 2 0
BITMAP
0300
0200
0400
0000
71C0
2080
6080
4100
4100
C100
8200
8200
8200
8400
7800
ENDCHAR
STARTCHAR Ucircumflex
ENCODING 219
SWIDTH 722 0
DWIDTH 12 0
BBX 10 15 2 0
BITMAP
0200
0700
0880
0000
71C0
2080
6080
4100
4100
C100
8200
8200
8200
8400
7800
ENDCHAR
STARTCHAR Udieresis
ENCODING 220
SWIDTH 722 0
DWIDTH 12 0
BBX 10 14 2 0
BITMAP
1100
1100
0000
71C0
2080
6080
4100
4100
C100
8200
8200
8200
8400
7800
ENDCHAR
STARTCHAR Yacute
ENCODING 221
SWIDTH 556 0
DWIDTH 9 0
BBX 9 15 1 0
BITMAP
0300
0200
0400
0000
E380
4100
6200
2400
2800
1000
1000
3000
2000
2000
7000
ENDCHAR
STARTCHAR Thorn
ENCODING 222
SWIDTH 611 0
DWIDTH 10 0
BBX 10 11 0 0
BITMAP
1C00
0800
1F80
1040
1040
3040
2180
3E00
6000
4000
E000
ENDCHAR
STARTCHAR germandbls
ENCODING 223
SWIDTH 500 0
DWIDTH 8 0
BBX 10 15 -2 -4
BITMAP
0380
0640
0440
0CC0
0B00
0980
0880
1880
1080
1580
3300
2000
2000
A000
C000
ENDCHAR
STARTCHAR agrave
ENCODING 224
SWIDTH 500 0
DWIDTH 8 0
BBX 7 12 0 0
BITMAP
18
08
04
00
1A
24
44
C4
8C
88
9A
64
ENDCHAR
STARTCHAR aacute
ENCODING 225
SWIDTH 500 0
DWIDTH 8 0
BBX 7 12 0 0
BITMAP
06
04
08
00
1A
26
44
C4
8C
88
9A
64
ENDCHAR
STARTCHAR acircumflex
ENCODING 226
SWIDTH 500 0
DWIDTH 8 0
BBX 7 12 0 0
BITMAP
08
1C
22
00
1A
26
44
C4
8C
88
9A
64
ENDCHAR
STARTCHAR atilde
ENCODING 227
SWIDTH 500 0
DWIDTH 8 0
BBX 7 11 0 0
BITMAP
1A
2C
00
1A
26
44
C4
8C
88
9A
64
ENDCHAR
STARTCHAR adieresis
ENCODING 228
SWIDTH 500 0
DWIDTH 8 0
BBX 7 11 0 0
BITMAP
12
12
00
1A
26
44
C4
8C
88
9A
64
ENDCHAR
STARTCHAR aring
ENCODING 229
SWIDTH 500 0
DWIDTH 8 0
BBX 7 13 0 0
BITMAP
08
14
14
08
00
1A
26
44
C4
8C
88
9A
64
ENDCHAR
STARTCHAR ae
ENCODING 230
SWIDTH 667 0
DWIDTH 11 0
BBX 11 8 0 0
BITMAP
1AC0
6720
4620
C4C0
8F00
8C00
9440
6380
ENDCHAR
STARTCHAR ccedilla
ENCODING 231
SWIDTH 444 0
DWIDTH 7 0
BBX 6 11 1 -3
BITMAP
18
64
40
C0
80
80
C8
70
20
90
60
ENDCHAR
STARTCHAR egrave
ENCODING 232
SWIDTH 444 0
DWIDTH 7 0
BBX 6 12 1 0
BITMAP
30
10
08
00
18
64
44
98
E0
80
88
70
ENDCHAR
STARTCHAR eacute
ENCODING 233
SWIDTH 444 0
DWIDTH 7 0
BBX 6 12 1 0
BITMAP
0C
08
10
00
18
64
44
98
E0
80
88
70
ENDCHAR
STARTCHAR ecircumflex
ENCODING 234
SWIDTH 444 0
DWIDTH 7 0
BBX 7 12 1 0
BITMAP
08
1C
22
00
18
64
44
98
E0
80
88
70
ENDCHAR
STARTCHAR edieresis
ENCODING 235
SWIDTH 444 0
DWIDTH 7 0
BBX 6 11 1 0
BITMAP
24
24
00
18
64
44
98
E0
80
88
70
ENDCHAR
STARTCHAR igrave
ENCODING 236
SWIDTH 278 0
DWIDTH 5 0
BBX 4 12 1 0
BITMAP
60
20
10
00
20
60
20
60
40
C0
A0
C0
ENDCHAR
STARTCHAR iacute
ENCODING 237
SWIDTH 278 0
DWIDTH 5 0
BBX 5 12 1 0
BITMAP
18
10
20
00
20
60
20
60
40
C0
A0
C0
ENDCHAR
STARTCHAR icircumflex
ENCODING 238
SWIDTH 278 0
DWIDTH 5 0
BBX 5 12 1 0
BITMAP
20
70
88
00
20
60
20
60
40
C0
A0
C0
ENDCHAR
STARTCHAR idieresis
ENCODING 239
SWIDTH 278 0
DWIDTH 5 0
BBX 4 11 1 0
BITMAP
50
50
00
20
60
20
60
40
C0
A0
C0
ENDCHAR
STARTCHAR eth
ENCODING 240
SWIDTH 500 0
DWIDTH 8 0
BBX 7 12 0 0
BITMAP
32
0C
34
02
1A
66
42
C2
86
84
CC
70
ENDCHAR
STARTCHAR ntilde
ENCODING 241
SWIDTH 500 0
DWIDTH 8 0
BBX 7 11 0 0
BITMAP
1A
2C
00
66
2A
32
66
44
CC
8A
8C
ENDCHAR
STARTCHAR ograve
ENCODING 242
SWIDTH 500 0
DWIDTH 8 0
BBX 7 12 0 0
BITMAP
18
08
04
00
1C
66
42
C2
86
84
CC
70
ENDCHAR
STARTCHAR oacute
ENCODING 243
SWIDTH 500 0
DWIDTH 8 0
BBX 7 12 0 0
BITMAP
06
04
08
00
1C
66
42
C2
86
84
CC
70
ENDCHAR
STARTCHAR ocircumflex
ENCODING 244
SWIDTH 500 0
DWIDTH 8 0
BBX 7 12 0 0
BITMAP
08
1C
22
00
1C
66
42
C2
86
84
CC
70
ENDCHAR
STARTCHAR otilde
ENCODING 245
SWIDTH 500 0
DWIDTH 8 0
BBX 7 11 0 0
BITMAP
1A
2C
00
1C
66
42
C2
86
84
CC
70
ENDCHAR
STARTCHAR odieresis
ENCODING 246
SWIDTH 500 0
DWIDTH 8 0
BBX 7 11 0 0
BITMAP
12
12
00
1C
66
42
C2
86
84
CC
70
ENDCHAR
STARTCHAR divide
ENCODING 247
SWIDTH 675 0
DWIDTH 11 0
BBX 7 7 2 1
BITMAP
10
10
00
FE
00
10
10
ENDCHAR
STARTCHAR oslash
ENCODING 248
SWIDTH 500 0
DWIDTH 8 0
BBX 7 10 0 -1
BITMAP
02
1C
66
4A
D2
96
A4
CC
70
80
ENDCHAR
STARTCHAR ugrave
ENCODING 249
SWIDTH 500 0
DWIDTH 8 0
BBX 7 12 0 0
BITMAP
18
08
04
00
62
22
66
44
CC
98
AA
CC
ENDCHAR
STARTCHAR uacute
ENCODING 250
SWIDTH 500 0
DWIDTH 8 0
BBX 7 12 0 0
BITMAP
06
04
08
00
62
22
66
44
CC
98
AA
CC
ENDCHAR
STARTCHAR ucircumflex
ENCODING 251
SWIDTH 500 0
DWIDTH 8 0
BBX 7 12 0 0
BITMAP
08
1C
22
00
62
22
66
44
CC
98
AA
CC
ENDCHAR
STARTCHAR udieresis
ENCODING 252
SWIDTH 500 0
DWIDTH 8 0
BBX 7 11 0 0
BITMAP
12
12
00
62
22
66
44
CC
98
AA
CC
ENDCHAR
STARTCHAR yacute
ENCODING 253
SWIDTH 444 0
DWIDTH 7 0
BBX 7 16 0 -4
BITMAP
0C
08
10
00
66
22
22
32
14
14
18
18
10
20
A0
C0
ENDCHAR
STARTCHAR thorn
ENCODING 254
SWIDTH 500 0
DWIDTH 8 0
BBX 9 15 -2 -4
BITMAP
0C00
0400
0800
0B00
0C80
1880
1080
1180
1100
3200
2C00
2000
6000
4000
E000
ENDCHAR
STARTCHAR ydieresis
ENCODING 255
SWIDTH 444 0
DWIDTH 7 0
BBX 7 15 0 -4
BITMAP
12
12
00
66
22
22
32
14
14
18
18
10
20
A0
C0
ENDCHAR
STARTCHAR Amacron
ENCODING 256
SWIDTH 611 0
DWIDTH 10 0
BBX 10 13 -1 0
BITMAP
0780
0000
0080
0180
0280
0480
0880
0880
1F80
2080
2080
4080
E1C0
ENDCHAR
STARTCHAR amacron
ENCODING 257
SWIDTH 500 0
DWIDTH 8 0
BBX 7 10 0 0
BITMAP
3C
00
1A
26
44
C4
8C
88
9A
64
ENDCHAR
STARTCHAR Abreve
ENCODING 258
SWIDTH 611 0
DWIDTH 10 0
BBX 10 14 -1 0
BITMAP
0880
0700
0000
0080
0180
0280
0480
0880
0880
1F80
2080
2080
4080
E1C0
ENDCHAR
STARTCHAR abreve
ENCODING 259
SWIDTH 500 0
DWIDTH 8 0
BBX 7 11 0 0
BITMAP
22
1C
00
1A
26
44
C4
8C
88
9A
64
ENDCHAR
STARTCHAR Aogonek
ENCODING 260
SWIDTH 611 0
DWIDTH 10 0
BBX 10 14 -1 -3
BITMAP
0080
0180
0280
0480
0880
0880
1F80
2080
2080
4080
E5C0
0800
0900
0E00
ENDCHAR
STARTCHAR aogonek
ENCODING 261
SWIDTH 500 0
DWIDTH 8 0
BBX 7 11 0 -3
BITMAP
1A
26
44
C4
8C
88
9A
74
20
24
38
ENDCHAR
STARTCHAR Cacute
ENCODING 262
SWIDTH 667 0
DWIDTH 11 0
BBX 10 15 1 0
BITMAP
0300
0200
0400
0000
0740
18C0
2040
4000
4000
8000
8000
8000
C080
6100
3E00
ENDCHAR
STARTCHAR cacute
ENCODING 263
SWIDTH 444 0
DWIDTH 7 0
BBX 6 12 0 0
BITMAP
18
10
20
00
18
64
40
C0
80
80
C8
70
ENDCHAR
STARTCHAR Ccircumflex
ENCODING 264
SWIDTH 667 0
DWIDTH 11 0
BBX 10 15 1 0
BITMAP
0200
0700
0880
0000
0740
18C0
2040
4000
4000
8000
8000
8000
C080
6100
3E00
ENDCHAR
STARTCHAR ccircumflex
ENCODING 265
SWIDTH 444 0
DWIDTH 7 0
BBX 6 12 0 0
BITMAP
10
38
44
00
18
64
40
C0
80
80
C8
70
ENDCHAR
STARTCHAR Cdotaccent
ENCODING 266
SWIDTH 667 0
DWIDTH 11 0
BBX 10 14 1 0
BITMAP
0200
0200
0000
0740
18C0
2040
4000
4000
8000
8000
8000
C080
6100
3E00
ENDCHAR
STARTCHAR cdotaccent
ENCODING 267
SWIDTH 444 0
DWIDTH 7 0
BBX 6 11 0 0
BITMAP
10
10
00
18
64
40
C0
80
80
C8
70
ENDCHAR
STARTCHAR Ccaron
ENCODING 268
SWIDTH 667 0
DWIDTH 11 0
BBX 10 15 1 0
BITMAP
0880
0700
0200
0000
0740
18C0
2040
4000
4000
8000
8000
8000
C080
6100
3E00
ENDCHAR
STARTCHAR ccaron
ENCODING 269
SWIDTH 444 0
DWIDTH 7 0
BBX 6 12 0 0
BITMAP
44
38
10
00
18
64
40
C0
80
80
C8
70
ENDCHAR
STARTCHAR Dcaron
ENCODING 270
SWIDTH 722 0
DWIDTH 12 0
BBX 11 15 0 0
BITMAP
1100
0E00
0400
0000
1F80
0840
1820
1020
1020
3020
2040
2040
6080
4300
FC00
ENDCHAR
STARTCHAR dcaron
ENCODING 271
SWIDTH 808 0
DWIDTH 14 0
BBX 12 11 0 0
BITMAP
0300
0110
0310
1A20
2640
4400
C400
8C00
8C00
9500
6200
ENDCHAR
STARTCHAR Dcroat
ENCODING 272
SWIDTH 722 0
DWIDTH 12 0
BBX 11 11 0 0
BITMAP
1F80
0840
1820
1020
1020
7820
2040
2040
6080
4300
FC00
ENDCHAR
STARTCHAR dcroat
ENCODING 273
SWIDTH 500 0
DWIDTH 8 0
BBX 8 11 0 0
BITMAP
03
3F
03
1A
26
44
C4
8C
8C
95
62
ENDCHAR
STARTCHAR Emacron
ENCODING 274
SWIDTH 611 0
DWIDTH 10 0
BBX 10 13 0 0
BITMAP
0F00
0000
1FC0
0840
1800
1000
1100
3E00
2200
2000
6080
4180
FF00
ENDCHAR
STARTCHAR emacron
ENCODING 275
SWIDTH 444 0
DWIDTH 7 0
BBX 6 10 1 0
BITMAP
78
00
18
64
44
98
E0
80
C8
70
ENDCHAR
STARTCHAR Ebreve
ENCODING 276
SWIDTH 611 0
DWIDTH 10 0
BBX 10 14 0 0
BITMAP
1100
0E00
0000
1FC0
0840
1800
1000
1100
3E00
2200
2000
6080
4180
FF00
ENDCHAR
STARTCHAR ebreve
ENCODING 277
SWIDTH 444 0
DWIDTH 7 0
BBX 6 11 1 0
BITMAP
44
38
00
18
64
44
98
E0
80
C8
70
ENDCHAR
STARTCHAR Edotaccent
ENCODING 278
SWIDTH 611 0
DWIDTH 10 0
BBX 10 14 0 0
BITMAP
0400
0400
0000
1FC0
0840
1800
1000
1100
3E00
2200
2000
6080
4180
FF00
ENDCHAR
STARTCHAR edotaccent
ENCODING 279
SWIDTH 444 0
DWIDTH 7 0
BBX 6 11 1 0
BITMAP
10
10
00
18
64
44
98
E0
80
C8
70
ENDCHAR
STARTCHAR Eogonek
ENCODING 280
SWIDTH 611 0
DWIDTH 10 0
BBX 10 14 0 -3
BITMAP
1FC0
0840
1800
1000
1100
3E00
2200
2000
6080
4180
FF00
1000
1200
1C00
ENDCHAR
STARTCHAR eogonek
ENCODING 281
SWIDTH 444 0
DWIDTH 7 0
BBX 6 11 1 -3
BITMAP
18
64
44
98
E0
80
C8
70
40
48
70
ENDCHAR
STARTCHAR Ecaron
ENCODING 282
SWIDTH 611 0
DWIDTH 10 0
BBX 10 15 0 0
BITMAP
1100
0E00
0400
0000
1FC0
0840
1800
1000
1100
3E00
2200
2000
6080
4180
FF00
ENDCHAR
STARTCHAR ecaron
ENCODING 283
SWIDTH 444 0
DWIDTH 7 0
BBX 6 12 1 0
BITMAP
44
38
10
00
18
64
44
98
E0
80
C8
70
ENDCHAR
STARTCHAR Gcircumflex
ENCODING 284
SWIDTH 722 0
DWIDTH 12 0
BBX 11 15 0 0
BITMAP
0200
0700
0880
0000
0740
18C0
2040
4000
4000
81E0
80C0
8080
C080
6100
3E00
ENDCHAR
STARTCHAR gcircumflex
ENCODING 285
SWIDTH 500 0
DWIDTH 8 0
BBX 8 16 0 -4
BITMAP
08
1C
22
00
1C
33
22
22
26
1C
20
38
CC
84
8C
78
ENDCHAR
STARTCHAR Gbreve
ENCODING 286
SWIDTH 722 0
DWIDTH 12 0
BBX 11 14 0 0
BITMAP
0880
0700
0000
0740
18C0
2040
4000
4000
81E0
80C0
8080
C080
6100
3E00
ENDCHAR
STARTCHAR gbreve
ENCODING 287
SWIDTH 500 0
DWIDTH 8 0
BBX 8 15 0 -4
BITMAP
22
1C
00
1C
33
22
22
26
1C
20
38
CC
84
8C
78
ENDCHAR
STARTCHAR Gdotaccent
ENCODING 288
SWIDTH 722 0
DWIDTH 12 0
BBX 11 14 0 0
BITMAP
0200
0200
0000
0740
18C0
2040
4000
4000
81E0
80C0
8080
C080
6100
3E00
ENDCHAR
STARTCHAR gdotaccent
ENCODING 289
SWIDTH 500 0
DWIDTH 8 0
BBX 8 15 0 -4
BITMAP
08
08
00
1C
33
22
22
26
1C
20
38
CC
84
8C
78
ENDCHAR
STARTCHAR Gcommaaccent
ENCODING 290
SWIDTH 722 0
DWIDTH 12 0
BBX 11 16 0 -5
BITMAP
0740
18C0
2040
4000
4000
81E0
80C0
8080
C080
6100
3E00
0000
0800
0800
1000
2000
ENDCHAR
STARTCHAR gcommaaccent
ENCODING 291
SWIDTH 500 0
DWIDTH 8 0
BBX 8 17 0 -4
BITMAP
02
04
08
08
00
1C
33
22
22
26
1C
20
38
CC
84
8C
78
ENDCHAR
STARTCHAR Hcircumflex
ENCODING 292
SWIDTH 722 0
DWIDTH 12 0
BBX 12 15 0 0
BITMAP
0200
0700
0880
0000
1C70
0820
1860
1040
1040
3FC0
2080
2080
6180
4100
E380
ENDCHAR
STARTCHAR hcircumflex
ENCODING 293
SWIDTH 500 0
DWIDTH 8 0
BBX 7 15 0 0
BITMAP
10
38
44
00
30
10
30
26
2A
72
66
44
CC
8A
8C
ENDCHAR
STARTCHAR Hbar
ENCODING 294
SWIDTH 722 0
DWIDTH 12 0
BBX 12 11 0 0
BITMAP
1C70
0820
FFF0
1040
1040
3FC0
2080
2080
6180
4100
E380
ENDCHAR
STARTCHAR hbar
ENCODING 295
SWIDTH 500 0
DWIDTH 8 0
BBX 8 11 -1 0
BITMAP
18
FC
18
13
15
39
33
22
66
45
46
ENDCHAR
STARTCHAR Itilde
ENCODING 296
SWIDTH 333 0
DWIDTH 6 0
BBX 7 14 0 0
BITMAP
1A
2C
00
1C
08
18
10
10
30
20
20
60
40
E0
ENDCHAR
STARTCHAR itilde
ENCODING 297
SWIDTH 278 0
DWIDTH 5 0
BBX 5 11 1 0
BITMAP
68
B0
00
20
60
20
60
40
C0
A0
C0
ENDCHAR
STARTCHAR Imacron
ENCODING 298
SWIDTH 333 0
DWIDTH 6 0
BBX 6 13 0 0
BITMAP
3C
00
1C
08
18
10
10
30
20
20
60
40
E0
ENDCHAR
STARTCHAR imacron
ENCODING 299
SWIDTH 278 0
DWIDTH 5 0
BBX 4 10 1 0
BITMAP
F0
00
20
60
20
60
40
C0
A0
C0
ENDCHAR
STARTCHAR Ibreve
ENCODING 300
SWIDTH 333 0
DWIDTH 6 0
BBX 6 14 0 0
BITMAP
44
38
00
1C
08
18
10
10
30
20
20
60
40
E0
ENDCHAR
STARTCHAR ibreve
ENCODING 301
SWIDTH 278 0
DWIDTH 5 0
BBX 5 11 1 0
BITMAP
88
70
00
20
60
20
60
40
C0
A0
C0
ENDCHAR
STARTCHAR Iogonek
ENCODING 302
SWIDTH 333 0
DWIDTH 6 0
BBX 6 14 0 -3
BITMAP
1C
08
18
10
10
30
20
20
60
40
E0
40
48
70
ENDCHAR
STARTCHAR iogonek
ENCODING 303
SWIDTH 278 0
DWIDTH 5 0
BBX 4 14 1 -3
BITMAP
10
10
00
20
60
20
60
40
C0
A0
C0
80
90
E0
ENDCHAR
STARTCHAR Idotaccent
ENCODING 304
SWIDTH 333 0
DWIDTH 6 0
BBX 6 14 0 0
BITMAP
10
10
00
1C
08
18
10
10
30
20
20
60
40
E0
ENDCHAR
STARTCHAR dotlessi
ENCODING 305
SWIDTH 278 0
DWIDTH 5 0
BBX 3 8 1 0
BITMAP
20
60
20
60
40
C0
A0
C0
ENDCHAR
STARTCHAR IJ
ENCODING 306
SWIDTH 760 0
DWIDTH 13 0
BBX 13 11 0 0
BITMAP
1C38
0810
1830
1020
1020
3060
2040
2040
62C0
4280
E100
ENDCHAR
STARTCHAR ij
ENCODING 307
SWIDTH 542 0
DWIDTH 10 0
BBX 8 15 1 -4
BITMAP
11
11
00
23
61
23
62
42
C6
A4
C4
0C
08
58
30
ENDCHAR
STARTCHAR Jcircumflex
ENCODING 308
SWIDTH 444 0
DWIDTH 7 0
BBX 7 15 0 0
BITMAP
08
1C
22
00
0E
04
0C
08
08
18
10
10
B0
A0
40
ENDCHAR
STARTCHAR jcircumflex
ENCODING 309
SWIDTH 278 0
DWIDTH 5 0
BBX 8 16 -3 -4
BITMAP
04
0E
11
00
06
02
06
04
04
0C
08
08
18
10
B0
60
ENDCHAR
STARTCHAR Kcommaaccent
ENCODING 310
SWIDTH 667 0
DWIDTH 11 0
BBX 10 16 0 -5
BITMAP
1DC0
0880
1900
1200
1400
3C00
2400
2600
6200
4300
E780
0000
0400
0400
0800
1000
ENDCHAR
STARTCHAR kcommaaccent
ENCODING 311
SWIDTH 444 0
DWIDTH 7 0
BBX 7 16 0 -5
BITMAP
30
10
30
26
24
68
50
70
D8
8A
8C
00
10
10
20
40
ENDCHAR
STARTCHAR kgreenlandic
ENCODING 312
SWIDTH 444 0
DWIDTH 7 0
BBX 7 8 0 0
BITMAP
26
24
68
50
70
D8
8A
8C
ENDCHAR
STARTCHAR Lacute
ENCODING 313
SWIDTH 556 0
DWIDTH 9 0
BBX 9 15 0 0
BITMAP
0600
0400
0800
0000
1C00
0800
1800
1000
1000
3000
2000
2000
6080
4180
FF00
ENDCHAR
STARTCHAR lacute
ENCODING 314
SWIDTH 278 0
DWIDTH 5 0
BBX 5 15 1 0
BITMAP
18
10
20
00
30
10
30
20
20
60
40
40
C0
A0
C0
ENDCHAR
STARTCHAR Lcommaaccent
ENCODING 315
SWIDTH 556 0
DWIDTH 9 0
BBX 9 16 0 -5
BITMAP
1C00
0800
1800
1000
1000
3000
2000
2000
6080
4180
FF00
0000
0800
0800
1000
2000
ENDCHAR
STARTCHAR lcommaaccent
ENCODING 316
SWIDTH 278 0
DWIDTH 5 0
BBX 5 16 0 -5
BITMAP
18
08
18
10
10
30
20
20
60
50
60
00
20
20
40
80
ENDCHAR
STARTCHAR Lcaron
ENCODING 317
SWIDTH 861 0
DWIDTH 15 0
BBX 13 11 0 0
BITMAP
1C00
0808
1808
1010
1020
3000
2000
2000
6080
4180
FF00
ENDCHAR
STARTCHAR lcaron
ENCODING 318
SWIDTH 597 0
DWIDTH 11 0
BBX 8 11 1 0
BITMAP
30
11
31
22
24
60
40
40
C0
A0
C0
ENDCHAR
STARTCHAR Ldot
ENCODING 319
SWIDTH 778 0
DWIDTH 13 0
BBX 12 11 0 0
BITMAP
1C00
0800
1800
1000
1000
3000
2010
2010
6080
4180
FF00
ENDCHAR
STARTCHAR ldot
ENCODING 320
SWIDTH 514 0
DWIDTH 9 0
BBX 7 11 1 0
BITMAP
30
10
30
20
20
60
42
42
C0
A0
C0
ENDCHAR
STARTCHAR Lslash
ENCODING 321
SWIDTH 556 0
DWIDTH 9 0
BBX 9 11 0 0
BITMAP
1C00
0800
1800
1400
1800
7000
A000
2000
6080
4180
FF00
ENDCHAR
STARTCHAR lslash
ENCODING 322
SWIDTH 278 0
DWIDTH 5 0
BBX 4 11 1 0
BITMAP
30
10
30
20
20
70
C0
40
C0
A0
C0
ENDCHAR
STARTCHAR Nacute
ENCODING 323
SWIDTH 667 0
DWIDTH 11 0
BBX 13 15 -1 0
BITMAP
0180
0100
0200
0000
1838
0810
1C10
1420
1620
2220
2340
2140
41C0
4080
E080
ENDCHAR
STARTCHAR nacute
ENCODING 324
SWIDTH 500 0
DWIDTH 8 0
BBX 7 12 0 0
BITMAP
0C
08
10
00
66
2A
32
66
44
CC
8A
8C
ENDCHAR
STARTCHAR Ncommaaccent
ENCODING 325
SWIDTH 667 0
DWIDTH 11 0
BBX 13 16 -1 -5
BITMAP
1838
0810
1C10
1420
1620
2220
2340
2140
41C0
4080
E080
0000
0400
0400
0800
1000
ENDCHAR
STARTCHAR ncommaaccent
ENCODING 326
SWIDTH 500 0
DWIDTH 8 0
BBX 7 13 0 -5
BITMAP
66
2A
32
66
44
CC
8A
8C
00
10
10
20
40
ENDCHAR
STARTCHAR Ncaron
ENCODING 327
SWIDTH 667 0
DWIDTH 11 0
BBX 13 15 -1 0
BITMAP
0440
0380
0100
0000
1838
0810
1C10
1420
1620
2220
2340
2140
41C0
4080
E080
ENDCHAR
STARTCHAR ncaron
ENCODING 328
SWIDTH 500 0
DWIDTH 8 0
BBX 7 12 0 0
BITMAP
44
38
10
00
66
2A
32
66
44
CC
8A
8C
ENDCHAR
STARTCHAR napostrophe
ENCODING 329
SWIDTH 816 0
DWIDTH 14 0
BBX 12 10 1 0
BITMAP
2000
2000
4330
8150
0190
0330
0220
0660
0450
0460
ENDCHAR
STARTCHAR Eng
ENCODING 330
SWIDTH 667 0
DWIDTH 11 0
BBX 13 15 -1 -4
BITMAP
1838
0810
1C10
1420
1620
2220
2340
2140
41C0
4080
E080
0180
0100
0B00
0600
ENDCHAR
STARTCHAR eng
ENCODING 331
SWIDTH 500 0
DWIDTH 8 0
BBX 7 12 0 -4
BITMAP
66
2A
32
66
44
CC
88
88
18
10
B0
60
ENDCHAR
STARTCHAR Omacron
ENCODING 332
SWIDTH 722 0
DWIDTH 12 0
BBX 10 13 1 0
BITMAP
1E00
0000
0E00
3180
4080
40C0
8040
8040
80C0
C080
4180
6300
1C00
ENDCHAR
STARTCHAR omacron
ENCODING 333
SWIDTH 500 0
DWIDTH 8 0
BBX 7 10 0 0
BITMAP
3C
00
1C
66
42
C2
86
84
CC
70
ENDCHAR
STARTCHAR Obreve
ENCODING 334
SWIDTH 722 0
DWIDTH 12 0
BBX 10 14 1 0
BITMAP
1100
0E00
0000
0E00
3180
4080
40C0
8040
8040
80C0
C080
4180
6300
1C00
ENDCHAR
STARTCHAR obreve
ENCODING 335
SWIDTH 500 0
DWIDTH 8 0
BBX 7 11 0 0
BITMAP
44
38
00
1C
66
42
C2
86
84
CC
70
ENDCHAR
STARTCHAR Ohungarumlaut
ENCODING 336
SWIDTH 722 0
DWIDTH 12 0
BBX 10 15 1 0
BITMAP
0D80
0900
1200
0000
0E00
3180
4080
40C0
8040
8040
80C0
C080
4180
6300
1C00
ENDCHAR
STARTCHAR ohungarumlaut
ENCODING 337
SWIDTH 500 0
DWIDTH 8 0
BBX 8 12 0 0
BITMAP
1B
12
24
00
1C
66
42
C2
86
84
CC
70
ENDCHAR
STARTCHAR OE
ENCODING 338
SWIDTH 944 0
DWIDTH 16 0
BBX 15 11 0 0
BITMAP
07FE
18C2
20C0
4080
4088
81F0
8110
C100
4304
620C
1FF8
ENDCHAR
STARTCHAR oe
ENCODING 339
SWIDTH 667 0
DWIDTH 11 0
BBX 11 8 0 0
BITMAP
1CC0
6720
4220
C2C0
8700
8400
CC40
7380
ENDCHAR
STARTCHAR Racute
ENCODING 340
SWIDTH 611 0
DWIDTH 10 0
BBX 10 15 0 0
BITMAP
0300
0200
0400
0000
1F80
0840
1840
1040
1180
3E00
2400
2200
6300
4100
E180
ENDCHAR
STARTCHAR racute
ENCODING 341
SWIDTH 389 0
DWIDTH 6 0
BBX 6 12 0 0
BITMAP
0C
08
10
00
64
2C
30
60
40
C0
80
80
ENDCHAR
STARTCHAR Rcommaaccent
ENCODING 342
SWIDTH 611 0
DWIDTH 10 0
BBX 10 16 0 -5
BITMAP
1F80
0840
1840
1040
1180
3E00
2400
2200
6300
4100
E180
0000
0800
0800
1000
2000
ENDCHAR
STARTCHAR rcommaaccent
ENCODING 343
SWIDTH 389 0
DWIDTH 6 0
BBX 7 13 -1 -5
BITMAP
32
16
18
30
20
60
40
40
00
20
20
40
80
ENDCHAR
STARTCHAR Rcaron
ENCODING 344
SWIDTH 611 0
DWIDTH 10 0
BBX 10 15 0 0
BITMAP
1100
0E00
0400
0000
1F80
0840
1840
1040
1180
3E00
2400
2200
6300
4100
E180
ENDCHAR
STARTCHAR rcaron
ENCODING 345
SWIDTH 389 0
DWIDTH 6 0
BBX 6 12 0 0
BITMAP
44
38
10
00
64
2C
30
60
40
C0
80
80
ENDCHAR
STARTCHAR Sacute
ENCODING 346
SWIDTH 500 0
DWIDTH 8 0
BBX 8 15 0 0
BITMAP
06
04
08
00
1D
33
21
30
18
0C
06
02
82
C4
B8
ENDCHAR
STARTCHAR sacute
ENCODING 347
SWIDTH 389 0
DWIDTH 6 0
BBX 5 12 0 0
BITMAP
18
10
20
00
38
48
40
60
30
10
90
E0
ENDCHAR
STARTCHAR Scircumflex
ENCODING 348
SWIDTH 500 0
DWIDTH 8 0
BBX 8 15 0 0
BITMAP
08
1C
22
00
1D
33
21
30
18
0C
06
02
82
C4
B8
ENDCHAR
STARTCHAR scircumflex
ENCODING 349
SWIDTH 389 0
DWIDTH 6 0
BBX 5 12 0 0
BITMAP
20
70
88
00
38
48
40
60
30
10
90
E0
ENDCHAR
STARTCHAR Scedilla
ENCODING 350
SWIDTH 500 0
DWIDTH 8 0
BBX 8 14 0 -3
BITMAP
1D
33
21
30
18
0C
06
02
82
C4
B8
10
48
30
ENDCHAR
STARTCHAR scedilla
ENCODING 351
SWIDTH 389 0
DWIDTH 6 0
BBX 5 11 0 -3
BITMAP
38
48
40
60
30
10
90
E0
20
90
60
ENDCHAR
STARTCHAR Scaron
ENCODING 352
SWIDTH 500 0
DWIDTH 8 0
BBX 8 13 0 0
BITMAP
11
0E
04
00
1D
33
21
1C
06
02
82
C4
B8
ENDCHAR
STARTCHAR scaron
ENCODING 353
SWIDTH 389 0
DWIDTH 6 0
BBX 6 12 0 0
BITMAP
44
38
10
00
38
48
40
60
30
10
90
E0
ENDCHAR
STARTCHAR Tcommaaccent
ENCODING 354
SWIDTH 556 0
DWIDTH 9 0
BBX 9 14 1 -3
BITMAP
FF80
8880
1800
1000
1000
3000
2000
2000
6000
4000
E000
2000
9000
6000
ENDCHAR
STARTCHAR tcommaaccent
ENCODING 355
SWIDTH 278 0
DWIDTH 5 0
BBX 6 13 -1 -3
BITMAP
08
08
3C
10
30
20
20
40
50
60
20
90
60
ENDCHAR
STARTCHAR Tcaron
ENCODING 356
SWIDTH 556 0
DWIDTH 9 0
BBX 9 15 1 0
BITMAP
2200
1C00
0800
0000
FF80
8880
1800
1000
1000
3000
2000
2000
6000
4000
E000
ENDCHAR
STARTCHAR tcaron
ENCODING 357
SWIDTH 597 0
DWIDTH 11 0
BBX 9 10 0 0
BITMAP
1080
1080
7900
2200
6000
4000
4000
8000
A000
C000
ENDCHAR
STARTCHAR Tbar
ENCODING 358
SWIDTH 556 0
DWIDTH 9 0
BBX 9 11 1 0
BITMAP
FF80
8880
1800
1000
1000
3F00
2000
2000
6000
4000
E000
ENDCHAR
STARTCHAR tbar
ENCODING 359
SWIDTH 278 0
DWIDTH 5 0
BBX 6 10 0 0
BITMAP
10
10
78
20
60
FC
40
80
A0
C0
ENDCHAR
STARTCHAR Utilde
ENCODING 360
SWIDTH 722 0
DWIDTH 12 0
BBX 10 14 2 0
BITMAP
0D00
1600
0000
71C0
2080
6080
4100
4100
C100
8200
8200
8200
8400
7800
ENDCHAR
STARTCHAR utilde
ENCODING 361
SWIDTH 500 0
DWIDTH 8 0
BBX 7 11 0 0
BITMAP
1A
2C
00
62
22
66
44
CC
98
AA
CC
ENDCHAR
STARTCHAR Umacron
ENCODING 362
SWIDTH 722 0
DWIDTH 12 0
BBX 10 13 2 0
BITMAP
1E00
0000
71C0
2080
6080
4100
4100
C100
8200
8200
8200
8400
7800
ENDCHAR
STARTCHAR umacron
ENCODING 363
SWIDTH 500 0
DWIDTH 8 0
BBX 7 10 0 0
BITMAP
3C
00
62
22
66
44
CC
98
AA
CC
ENDCHAR
STARTCHAR Ubreve
ENCODING 364
SWIDTH 722 0
DWIDTH 12 0
BBX 10 14 2 0
BITMAP
1100
0E00
0000
71C0
2080
6080
4100
4100
C100
8200
8200
8200
8400
7800
ENDCHAR
STARTCHAR ubreve
ENCODING 365
SWIDTH 500 0
DWIDTH 8 0
BBX 7 11 0 0
BITMAP
44
38
00
62
22
66
44
CC
98
AA
CC
ENDCHAR
STARTCHAR Uring
ENCODING 366
SWIDTH 722 0
DWIDTH 12 0
BBX 10 16 2 0
BITMAP
0400
0A00
0A00
0400
0000
71C0
2080
6080
4100
4100
C100
8200
8200
8200
8400
7800
ENDCHAR
STARTCHAR uring
ENCODING 367
SWIDTH 500 0
DWIDTH 8 0
BBX 7 13 0 0
BITMAP
10
28
28
10
00
62
22
66
44
CC
98
AA
CC
ENDCHAR
STARTCHAR Uhungarumlaut
ENCODING 368
SWIDTH 722 0
DWIDTH 12 0
BBX 10 15 2 0
BITMAP
0D80
0900
1200
0000
71C0
2080
6080
4100
4100
C100
8200
8200
8200
8400
7800
ENDCHAR
STARTCHAR uhungarumlaut
ENCODING 369
SWIDTH 500 0
DWIDTH 8 0
BBX 7 12 0 0
BITMAP
36
24
48
00
62
22
66
44
CC
98
AA
CC
ENDCHAR
STARTCHAR Uogonek
ENCODING 370
SWIDTH 722 0
DWIDTH 12 0
BBX 10 14 2 -3
BITMAP
71C0
2080
6080
4100
4100
C100
8200
8200
8200
8400
7800
2000
2400
3800
ENDCHAR
STARTCHAR uogonek
ENCODING 371
SWIDTH 500 0
DWIDTH 8 0
BBX 7 11 0 -3
BITMAP
62
22
66
44
CC
98
AA
DC
20
24
38
ENDCHAR
STARTCHAR Wcircumflex
ENCODING 372
SWIDTH 833 0
DWIDTH 14 0
BBX 15 15 0 0
BITMAP
0100
0380
0440
0000
E70E
4204
4208
6308
6710
2520
2920
3140
3180
2180
2100
ENDCHAR
STARTCHAR wcircumflex
ENCODING 373
SWIDTH 667 0
DWIDTH 11 0
BBX 11 12 0 0
BITMAP
0400
0E00
1100
0000
4260
C220
4620
6640
6A40
2A80
3300
2200
ENDCHAR
STARTCHAR Ycircumflex
ENCODING 374
SWIDTH 556 0
DWIDTH 9 0
BBX 9 15 1 0
BITMAP
0800
1C00
2200
0000
E380
4100
6200
2400
2800
1000
1000
3000
2000
2000
7000
ENDCHAR
STARTCHAR ycircumflex
ENCODING 375
SWIDTH 444 0
DWIDTH 7 0
BBX 7 16 -1 -4
BITMAP
10
38
44
00
66
22
22
32
14
14
18
18
10
20
A0
C0
ENDCHAR
STARTCHAR Ydieresis
ENCODING 376
SWIDTH 556 0
DWIDTH 9 0
BBX 9 12 1 0
BITMAP
1400
1400
0000
E380
4100
2200
2400
1800
1000
2000
2000
7000
ENDCHAR
STARTCHAR Zacute
ENCODING 377
SWIDTH 556 0
DWIDTH 9 0
BBX 9 15 0 0
BITMAP
0600
0400
0800
0000
3F80
4300
0200
0400
0C00
0800
1800
1000
2000
6100
FE00
ENDCHAR
STARTCHAR zacute
ENCODING 378
SWIDTH 389 0
DWIDTH 6 0
BBX 6 12 0 0
BITMAP
0C
08
10
00
7C
84
08
10
30
20
44
F8
ENDCHAR
STARTCHAR Zdotaccent
ENCODING 379
SWIDTH 556 0
DWIDTH 9 0
BBX 9 14 0 0
BITMAP
0400
0400
0000
3F80
4300
0200
0400
0C00
0800
1800
1000
2000
6100
FE00
ENDCHAR
STARTCHAR zdotaccent
ENCODING 380
SWIDTH 389 0
DWIDTH 6 0
BBX 6 11 0 0
BITMAP
10
10
00
7C
84
08
10
30
20
44
F8
ENDCHAR
STARTCHAR Zcaron
ENCODING 381
SWIDTH 556 0
DWIDTH 9 0
BBX 9 13 0 0
BITMAP
1100
0E00
0400
0000
3F80
4300
0200
0400
0800
1000
2000
6100
FE00
ENDCHAR
STARTCHAR zcaron
ENCODING 382
SWIDTH 389 0
DWIDTH 6 0
BBX 6 12 0 0
BITMAP
44
38
10
00
7C
84
08
10
30
20
44
F8
ENDCHAR
STARTCHAR uni0186
ENCODING 390
SWIDTH 667 0
DWIDTH 11 0
BBX 10 11 1 0
BITMAP
1F00
2180
40C0
0040
0040
0040
0080
0080
8100
C600
B800
ENDCHAR
STARTCHAR uni0189
ENCODING 393
SWIDTH 722 0
DWIDTH 12 0
BBX 11 11 0 0
BITMAP
1F80
0840
1820
1020
1020
7820
2040
2040
6080
4300
FC00
ENDCHAR
STARTCHAR uni018E
ENCODING 398
SWIDTH 611 0
DWIDTH 10 0
BBX 10 11 0 0
BITMAP
3FC0
6080
4180
0100
1100
1F00
2200
0200
0600
8400
FE00
ENDCHAR
STARTCHAR florin
ENCODING 402
SWIDTH 500 0
DWIDTH 8 0
BBX 8 15 -1 -4
BITMAP
03
05
04
04
3E
08
08
18
10
10
30
20
20
A0
C0
ENDCHAR
STARTCHAR uni0197
ENCODING 407
SWIDTH 333 0
DWIDTH 6 0
BBX 6 11 0 0
BITMAP
1C
08
18
10
10
FC
20
20
60
40
E0
ENDCHAR
STARTCHAR uni019A
ENCODING 410
SWIDTH 278 0
DWIDTH 5 0
BBX 6 11 0 0
BITMAP
18
08
18
10
10
FC
20
20
60
50
60
ENDCHAR
STARTCHAR uni019D
ENCODING 413
SWIDTH 667 0
DWIDTH 11 0
BBX 16 15 -4 -4
BITMAP
0307
0102
0382
0284
02C4
0444
0468
0428
0C38
0810
0810
1800
1000
B000
6000
ENDCHAR
STARTCHAR uni019F
ENCODING 415
SWIDTH 722 0
DWIDTH 12 0
BBX 10 11 1 0
BITMAP
0E00
3180
4080
40C0
8040
FFC0
80C0
C080
4180
6300
1C00
ENDCHAR
STARTCHAR Ohorn
ENCODING 416
SWIDTH 722 0
DWIDTH 12 0
BBX 12 11 1 0
BITMAP
0E10
3190
40A0
40C0
8040
8040
80C0
C080
4180
6300
1C00
ENDCHAR
STARTCHAR ohorn
ENCODING 417
SWIDTH 500 0
DWIDTH 8 0
BBX 10 8 0 0
BITMAP
1C40
6640
4280
C300
8600
8400
CC00
7000
ENDCHAR
STARTCHAR Uhorn
ENCODING 431
SWIDTH 722 0
DWIDTH 12 0
BBX 12 11 2 0
BITMAP
71D0
2090
60A0
4140
4100
C100
8200
8200
8200
8400
7800
ENDCHAR
STARTCHAR uhorn
ENCODING 432
SWIDTH 500 0
DWIDTH 8 0
BBX 10 8 0 0
BITMAP
6240
2240
6680
4500
CC00
9800
AA00
CC00
ENDCHAR
STARTCHAR uni01B5
ENCODING 437
SWIDTH 556 0
DWIDTH 9 0
BBX 9 11 0 0
BITMAP
3F80
4300
0200
0400
0C00
3F00
1800
1000
2000
6100
FE00
ENDCHAR
STARTCHAR uni01B6
ENCODING 438
SWIDTH 389 0
DWIDTH 6 0
BBX 6 8 0 0
BITMAP
7C
84
08
FC
30
20
44
F8
ENDCHAR
STARTCHAR uni01BB
ENCODING 443
SWIDTH 500 0
DWIDTH 8 0
BBX 8 11 -1 0
BITMAP
1E
23
01
01
02
FF
08
10
20
42
FC
ENDCHAR
STARTCHAR uni01BC
ENCODING 444
SWIDTH 500 0
DWIDTH 8 0
BBX 7 11 0 0
BITMAP
1E
10
20
78
0C
04
04
04
04
88
70
ENDCHAR
STARTCHAR uni01C0
ENCODING 448
SWIDTH 275 0
DWIDTH 5 0
BBX 5 14 0 -3
BITMAP
08
08
10
10
10
20
20
20
40
40
40
80
80
80
ENDCHAR
STARTCHAR uni01C2
ENCODING 450
SWIDTH 675 0
DWIDTH 11 0
BBX 8 14 1 -3
BITMAP
02
02
04
04
04
FF
08
08
FF
10
10
20
20
20
ENDCHAR
STARTCHAR uni01C3
ENCODING 451
SWIDTH 333 0
DWIDTH 6 0
BBX 4 11 0 0
BITMAP
10
10
30
20
20
60
40
40
00
80
80
ENDCHAR
STARTCHAR uni01CD
ENCODING 461
SWIDTH 611 0
DWIDTH 10 0
BBX 10 15 -1 0
BITMAP
0880
0700
0200
0000
0080
0180
0280
0480
0880
0880
1F80
2080
2080
4080
E1C0
ENDCHAR
STARTCHAR uni01CE
ENCODING 462
SWIDTH 500 0
DWIDTH 8 0
BBX 7 12 0 0
BITMAP
22
1C
08
00
1A
26
44
C4
8C
88
9A
64
ENDCHAR
STARTCHAR uni01CF
ENCODING 463
SWIDTH 333 0
DWIDTH 6 0
BBX 6 15 0 0
BITMAP
44
38
10
00
1C
08
18
10
10
30
20
20
60
40
E0
ENDCHAR
STARTCHAR uni01D0
ENCODING 464
SWIDTH 278 0
DWIDTH 5 0
BBX 5 12 1 0
BITMAP
88
70
20
00
20
60
20
60
40
C0
A0
C0
ENDCHAR
STARTCHAR uni01D1
ENCODING 465
SWIDTH 722 0
DWIDTH 12 0
BBX 10 15 1 0
BITMAP
1100
0E00
0400
0000
0E00
3180
4080
40C0
8040
8040
80C0
C080
4180
6300
1C00
ENDCHAR
STARTCHAR uni01D2
ENCODING 466
SWIDTH 500 0
DWIDTH 8 0
BBX 7 12 0 0
BITMAP
44
38
10
00
1C
66
42
C2
86
84
CC
70
ENDCHAR
STARTCHAR uni01D3
ENCODING 467
SWIDTH 722 0
DWIDTH 12 0
BBX 10 15 2 0
BITMAP
1100
0E00
0400
0000
71C0
2080
6080
4100
4100
C100
8200
8200
8200
8400
7800
ENDCHAR
STARTCHAR uni01D4
ENCODING 468
SWIDTH 500 0
DWIDTH 8 0
BBX 7 12 0 0
BITMAP
44
38
10
00
62
22
66
44
CC
98
AA
CC
ENDCHAR
STARTCHAR uni01D5
ENCODING 469
SWIDTH 722 0
DWIDTH 12 0
BBX 10 16 2 0
BITMAP
1E00
0000
1100
1100
0000
71C0
2080
6080
4100
4100
C100
8200
8200
8200
8400
7800
ENDCHAR
STARTCHAR uni01D6
ENCODING 470
SWIDTH 500 0
DWIDTH 8 0
BBX 7 13 0 0
BITMAP
1E
00
12
12
00
62
22
66
44
CC
98
AA
CC
ENDCHAR
STARTCHAR uni01D7
ENCODING 471
SWIDTH 722 0
DWIDTH 12 0
BBX 10 18 2 0
BITMAP
0300
0200
0400
0000
1100
1100
0000
71C0
2080
6080
4100
4100
C100
8200
8200
8200
8400
7800
ENDCHAR
STARTCHAR uni01D8
ENCODING 472
SWIDTH 500 0
DWIDTH 8 0
BBX 7 15 0 0
BITMAP
06
04
08
00
12
12
00
62
22
66
44
CC
98
AA
CC
ENDCHAR
STARTCHAR uni01D9
ENCODING 473
SWIDTH 722 0
DWIDTH 12 0
BBX 10 18 2 0
BITMAP
1100
0E00
0400
0000
1100
1100
0000
71C0
2080
6080
4100
4100
C100
8200
8200
8200
8400
7800
ENDCHAR
STARTCHAR uni01DA
ENCODING 474
SWIDTH 500 0
DWIDTH 8 0
BBX 7 15 0 0
BITMAP
22
1C
08
00
12
12
00
62
22
66
44
CC
98
AA
CC
ENDCHAR
STARTCHAR uni01DB
ENCODING 475
SWIDTH 722 0
DWIDTH 12 0
BBX 10 18 2 0
BITMAP
1800
0800
0400
0000
1100
1100
0000
71C0
2080
6080
4100
4100
C100
8200
8200
8200
8400
7800
ENDCHAR
STARTCHAR uni01DC
ENCODING 476
SWIDTH 500 0
DWIDTH 8 0
BBX 7 15 0 0
BITMAP
30
10
08
00
12
12
00
62
22
66
44
CC
98
AA
CC
ENDCHAR
STARTCHAR uni01DD
ENCODING 477
SWIDTH 444 0
DWIDTH 7 0
BBX 6 8 1 0
BITMAP
38
4C
04
1C
64
88
98
60
ENDCHAR
STARTCHAR uni01DE
ENCODING 478
SWIDTH 611 0
DWIDTH 10 0
BBX 11 16 -1 0
BITMAP
03C0
0000
0220
0220
0000
0080
0180
0280
0480
0880
0880
1F80
2080
2080
4080
E1C0
ENDCHAR
STARTCHAR uni01DF
ENCODING 479
SWIDTH 500 0
DWIDTH 8 0
BBX 7 13 0 0
BITMAP
1E
00
12
12
00
1A
26
44
C4
8C
88
9A
64
ENDCHAR
STARTCHAR uni01E0
ENCODING 480
SWIDTH 611 0
DWIDTH 10 0
BBX 10 16 -1 0
BITMAP
0F00
0000
0200
0200
0000
0080
0180
0280
0480
0880
0880
1F80
2080
2080
4080
E1C0
ENDCHAR
STARTCHAR uni01E1
ENCODING 481
SWIDTH 500 0
DWIDTH 8 0
BBX 7 13 0 0
BITMAP
3C
00
08
08
00
1A
26
44
C4
8C
88
9A
64
ENDCHAR
STARTCHAR uni01E2
ENCODING 482
SWIDTH 889 0
DWIDTH 15 0
BBX 16 13 -1 0
BITMAP
00F0
0000
01FF
00E1
0160
0240
0444
08F8
1F88
1080
2182
4106
E3FC
ENDCHAR
STARTCHAR uni01E3
ENCODING 483
SWIDTH 667 0
DWIDTH 11 0
BBX 11 10 0 0
BITMAP
0F00
0000
1AC0
6720
4620
C4C0
8F00
8C00
9440
6380
ENDCHAR
STARTCHAR uni01E4
ENCODING 484
SWIDTH 722 0
DWIDTH 12 0
BBX 12 11 0 0
BITMAP
0740
18C0
2040
4000
4000
81E0
80C0
83F0
C080
6100
3E00
ENDCHAR
STARTCHAR uni01E5
ENCODING 485
SWIDTH 500 0
DWIDTH 8 0
BBX 8 12 0 -4
BITMAP
1C
33
22
22
26
1C
20
38
CC
FF
8C
78
ENDCHAR
STARTCHAR Gcaron
ENCODING 486
SWIDTH 722 0
DWIDTH 12 0
BBX 11 15 0 0
BITMAP
0880
0700
0200
0000
0740
18C0
2040
4000
4000
81E0
80C0
8080
C080
6100
3E00
ENDCHAR
STARTCHAR gcaron
ENCODING 487
SWIDTH 500 0
DWIDTH 8 0
BBX 8 16 0 -4
BITMAP
22
1C
08
00
1C
33
22
22
26
1C
20
38
CC
84
8C
78
ENDCHAR
STARTCHAR uni01E8
ENCODING 488
SWIDTH 667 0
DWIDTH 11 0
BBX 10 15 0 0
BITMAP
1100
0E00
0400
0000
1DC0
0880
1900
1200
1400
3C00
2400
2600
6200
4300
E780
ENDCHAR
STARTCHAR uni01E9
ENCODING 489
SWIDTH 444 0
DWIDTH 7 0
BBX 7 15 0 0
BITMAP
44
38
10
00
30
10
30
26
24
68
50
70
D8
8A
8C
ENDCHAR
STARTCHAR uni01EA
ENCODING 490
SWIDTH 722 0
DWIDTH 12 0
BBX 10 14 1 -3
BITMAP
0E00
3180
4080
40C0
8040
8040
80C0
C080
4180
6300
1C00
0800
0900
0E00
ENDCHAR
STARTCHAR uni01EB
ENCODING 491
SWIDTH 500 0
DWIDTH 8 0
BBX 7 11 0 -3
BITMAP
1C
66
42
C2
86
84
CC
70
20
24
38
ENDCHAR
STARTCHAR uni01EC
ENCODING 492
SWIDTH 722 0
DWIDTH 12 0
BBX 10 16 1 -3
BITMAP
1E00
0000
0E00
3180
4080
40C0
8040
8040
80C0
C080
4180
6300
1C00
0800
0900
0E00
ENDCHAR
STARTCHAR uni01ED
ENCODING 493
SWIDTH 500 0
DWIDTH 8 0
BBX 7 13 0 -3
BITMAP
3C
00
1C
66
42
C2
86
84
CC
70
20
24
38
ENDCHAR
STARTCHAR uni01F0
ENCODING 496
SWIDTH 278 0
DWIDTH 5 0
BBX 8 16 -3 -4
BITMAP
11
0E
04
00
06
02
06
04
04
0C
08
08
18
10
B0
60
ENDCHAR
STARTCHAR uni01F4
ENCODING 500
SWIDTH 722 0
DWIDTH 12 0
BBX 11 15 0 0
BITMAP
0300
0200
0400
0000
0740
18C0
2040
4000
4000
81E0
80C0
8080
C080
6100
3E00
ENDCHAR
STARTCHAR uni01F5
ENCODING 501
SWIDTH 500 0
DWIDTH 8 0
BBX 8 16 0 -4
BITMAP
06
04
08
00
1C
33
22
22
26
1C
20
38
CC
84
8C
78
ENDCHAR
STARTCHAR uni01F8
ENCODING 504
SWIDTH 667 0
DWIDTH 11 0
BBX 13 15 -1 0
BITMAP
0600
0200
0100
0000
1838
0810
1C10
1420
1620
2220
2340
2140
41C0
4080
E080
ENDCHAR
STARTCHAR uni01F9
ENCODING 505
SWIDTH 500 0
DWIDTH 8 0
BBX 7 12 0 0
BITMAP
30
10
08
00
66
2A
32
66
44
CC
8A
8C
ENDCHAR
STARTCHAR Aringacute
ENCODING 506
SWIDTH 611 0
DWIDTH 10 0
BBX 11 19 -1 0
BITMAP
00C0
0080
0100
0000
00C0
0120
0120
00C0
0080
0180
0280
0480
0880
0880
1F80
2080
2080
4080
E1C0
ENDCHAR
STARTCHAR aringacute
ENCODING 507
SWIDTH 500 0
DWIDTH 8 0
BBX 7 17 0 0
BITMAP
0C
08
10
00
08
14
14
08
00
1A
26
44
C4
8C
88
9A
64
ENDCHAR
STARTCHAR AEacute
ENCODING 508
SWIDTH 889 0
DWIDTH 15 0
BBX 16 15 -1 0
BITMAP
0030
0020
0040
0000
01FF
00E1
0160
0240
0444
08F8
1F88
1080
2182
4106
E3FC
ENDCHAR
STARTCHAR aeacute
ENCODING 509
SWIDTH 667 0
DWIDTH 11 0
BBX 11 12 0 0
BITMAP
0300
0200
0400
0000
1AC0
6720
4620
C4C0
8F00
8C00
9440
6380
ENDCHAR
STARTCHAR Oslashacute
ENCODING 510
SWIDTH 722 0
DWIDTH 12 0
BBX 10 17 1 -1
BITMAP
0300
0200
0400
0000
0080
0700
1980
2280
44C0
4440
8840
8880
D080
5100
6600
3800
4000
ENDCHAR
STARTCHAR oslashacute
ENCODING 511
SWIDTH 500 0
DWIDTH 8 0
BBX 7 14 0 -1
BITMAP
0C
08
10
00
02
1C
66
4A
D2
96
A4
CC
70
80
ENDCHAR
STARTCHAR Scommaaccent
ENCODING 536
SWIDTH 500 0
DWIDTH 8 0
BBX 8 16 0 -5
BITMAP
1D
33
21
30
18
0C
06
02
82
C4
B8
00
10
10
20
40
ENDCHAR
STARTCHAR scommaaccent
ENCODING 537
SWIDTH 389 0
DWIDTH 6 0
BBX 5 13 0 -5
BITMAP
38
48
40
60
30
10
90
E0
00
20
20
40
80
ENDCHAR
STARTCHAR Tcommaaccent
ENCODING 538
SWIDTH 556 0
DWIDTH 9 0
BBX 9 16 1 -5
BITMAP
FF80
8880
1800
1000
1000
3000
2000
2000
6000
4000
E000
0000
2000
2000
4000
8000
ENDCHAR
STARTCHAR tcommaaccent
ENCODING 539
SWIDTH 278 0
DWIDTH 5 0
BBX 6 15 -1 -5
BITMAP
08
08
3C
10
30
20
20
40
50
60
00
20
20
40
80
ENDCHAR
STARTCHAR uni021E
ENCODING 542
SWIDTH 722 0
DWIDTH 12 0
BBX 12 15 0 0
BITMAP
0880
0700
0200
0000
1C70
0820
1860
1040
1040
3FC0
2080
2080
6180
4100
E380
ENDCHAR
STARTCHAR uni021F
ENCODING 543
SWIDTH 500 0
DWIDTH 8 0
BBX 7 15 0 0
BITMAP
44
38
10
00
30
10
30
26
2A
72
66
44
CC
8A
8C
ENDCHAR
STARTCHAR uni0226
ENCODING 550
SWIDTH 611 0
DWIDTH 10 0
BBX 10 14 -1 0
BITMAP
0200
0200
0000
0080
0180
0280
0480
0880
0880
1F80
2080
2080
4080
E1C0
ENDCHAR
STARTCHAR uni0227
ENCODING 551
SWIDTH 500 0
DWIDTH 8 0
BBX 7 11 0 0
BITMAP
08
08
00
1A
26
44
C4
8C
88
9A
64
ENDCHAR
STARTCHAR uni0228
ENCODING 552
SWIDTH 611 0
DWIDTH 10 0
BBX 10 14 0 -3
BITMAP
1FC0
0840
1800
1000
1100
3E00
2200
2000
6080
4180
FF00
0800
2400
1800
ENDCHAR
STARTCHAR uni0229
ENCODING 553
SWIDTH 444 0
DWIDTH 7 0
BBX 6 11 1 -3
BITMAP
18
64
44
98
E0
80
C8
70
20
90
60
ENDCHAR
STARTCHAR uni022A
ENCODING 554
SWIDTH 722 0
DWIDTH 12 0
BBX 10 16 1 0
BITMAP
0F00
0000
0900
0900
0000
0E00
3180
4080
40C0
8040
8040
80C0
C080
4180
6300
1C00
ENDCHAR
STARTCHAR uni022B
ENCODING 555
SWIDTH 500 0
DWIDTH 8 0
BBX 7 13 0 0
BITMAP
1E
00
12
12
00
1C
66
42
C2
86
84
CC
70
ENDCHAR
STARTCHAR uni022C
ENCODING 556
SWIDTH 722 0
DWIDTH 12 0
BBX 10 16 1 0
BITMAP
0F00
0000
0C80
1300
0000
0E00
3180
4080
40C0
8040
8040
80C0
C080
4180
6300
1C00
ENDCHAR
STARTCHAR uni022D
ENCODING 557
SWIDTH 500 0
DWIDTH 8 0
BBX 7 13 0 0
BITMAP
3C
00
1A
2C
00
1C
66
42
C2
86
84
CC
70
ENDCHAR
STARTCHAR uni022E
ENCODING 558
SWIDTH 722 0
DWIDTH 12 0
BBX 10 14 1 0
BITMAP
0400
0400
0000
0E00
3180
4080
40C0
8040
8040
80C0
C080
4180
6300
1C00
ENDCHAR
STARTCHAR uni022F
ENCODING 559
SWIDTH 500 0
DWIDTH 8 0
BBX 7 11 0 0
BITMAP
10
10
00
1C
66
42
C2
86
84
CC
70
ENDCHAR
STARTCHAR uni0230
ENCODING 560
SWIDTH 722 0
DWIDTH 12 0
BBX 10 16 1 0
BITMAP
1E00
0000
0400
0400
0000
0E00
3180
4080
40C0
8040
8040
80C0
C080
4180
6300
1C00
ENDCHAR
STARTCHAR uni0231
ENCODING 561
SWIDTH 500 0
DWIDTH 8 0
BBX 7 13 0 0
BITMAP
3C
00
10
10
00
1C
66
42
C2
86
84
CC
70
ENDCHAR
STARTCHAR uni0232
ENCODING 562
SWIDTH 556 0
DWIDTH 9 0
BBX 9 13 1 0
BITMAP
3C00
0000
E380
4100
6200
2400
2800
1000
1000
3000
2000
2000
7000
ENDCHAR
STARTCHAR uni0233
ENCODING 563
SWIDTH 444 0
DWIDTH 7 0
BBX 7 14 -1 -4
BITMAP
3C
00
66
22
22
32
14
14
18
18
10
20
A0
C0
ENDCHAR
STARTCHAR uni0250
ENCODING 592
SWIDTH 500 0
DWIDTH 8 0
BBX 7 8 0 0
BITMAP
4C
B2
22
62
46
44
C8
B0
ENDCHAR
STARTCHAR uni0259
ENCODING 601
SWIDTH 444 0
DWIDTH 7 0
BBX 6 8 1 0
BITMAP
38
4C
04
1C
64
88
98
60
ENDCHAR
STARTCHAR uni025F
ENCODING 607
SWIDTH 278 0
DWIDTH 5 0
BBX 8 15 -2 -7
BITMAP
03
05
04
04
0C
08
08
18
10
10
7C
20
20
A0
C0
ENDCHAR
STARTCHAR uni0265
ENCODING 613
SWIDTH 500 0
DWIDTH 8 0
BBX 7 11 0 -3
BITMAP
62
A2
66
44
CC
9C
A8
C8
18
10
18
ENDCHAR
STARTCHAR uni0275
ENCODING 629
SWIDTH 500 0
DWIDTH 8 0
BBX 7 8 0 0
BITMAP
1C
66
42
FE
86
84
CC
70
ENDCHAR
STARTCHAR uni0279
ENCODING 633
SWIDTH 389 0
DWIDTH 6 0
BBX 6 8 0 0
BITMAP
04
04
0C
08
18
30
D0
98
ENDCHAR
STARTCHAR uni0287
ENCODING 647
SWIDTH 278 0
DWIDTH 5 0
BBX 5 10 0 0
BITMAP
18
28
08
10
10
30
20
F0
40
40
ENDCHAR
STARTCHAR uni0289
ENCODING 649
SWIDTH 500 0
DWIDTH 8 0
BBX 7 8 0 0
BITMAP
62
22
66
FE
CC
98
AA
CC
ENDCHAR
STARTCHAR uni028C
ENCODING 652
SWIDTH 444 0
DWIDTH 7 0
BBX 7 8 0 0
BITMAP
08
18
28
4C
4C
84
84
C6
ENDCHAR
STARTCHAR uni028D
ENCODING 653
SWIDTH 667 0
DWIDTH 11 0
BBX 11 8 0 0
BITMAP
0880
1980
2A80
4AC0
4CC0
8C40
8860
C840
ENDCHAR
STARTCHAR uni028E
ENCODING 654
SWIDTH 444 0
DWIDTH 7 0
BBX 7 12 -1 0
BITMAP
06
0A
08
10
30
30
50
50
98
88
88
CC
ENDCHAR
STARTCHAR uni029E
ENCODING 670
SWIDTH 444 0
DWIDTH 7 0
BBX 7 11 0 -3
BITMAP
62
A2
36
1C
14
2C
48
C8
18
10
18
ENDCHAR
STARTCHAR uni02BB
ENCODING 699
SWIDTH 333 0
DWIDTH 6 0
BBX 3 4 2 6
BITMAP
20
40
80
80
ENDCHAR
STARTCHAR afii57929
ENCODING 700
SWIDTH 333 0
DWIDTH 6 0
BBX 3 4 1 6
BITMAP
20
20
40
80
ENDCHAR
STARTCHAR afii64937
ENCODING 701
SWIDTH 333 0
DWIDTH 6 0
BBX 3 4 1 6
BITMAP
80
80
40
20
ENDCHAR
STARTCHAR circumflex
ENCODING 710
SWIDTH 333 0
DWIDTH 6 0
BBX 5 3 0 9
BITMAP
20
70
88
ENDCHAR
STARTCHAR caron
ENCODING 711
SWIDTH 333 0
DWIDTH 6 0
BBX 5 3 1 9
BITMAP
88
70
20
ENDCHAR
STARTCHAR uni02C8
ENCODING 712
SWIDTH 214 0
DWIDTH 4 0
BBX 3 4 0 6
BITMAP
20
60
40
80
ENDCHAR
STARTCHAR macron
ENCODING 713
SWIDTH 333 0
DWIDTH 6 0
BBX 4 1 1 9
BITMAP
F0
ENDCHAR
STARTCHAR uni02CA
ENCODING 714
SWIDTH 333 0
DWIDTH 6 0
BBX 3 3 1 9
BITMAP
60
40
80
ENDCHAR
STARTCHAR uni02CB
ENCODING 715
SWIDTH 333 0
DWIDTH 6 0
BBX 3 3 1 9
BITMAP
C0
40
20
ENDCHAR
STARTCHAR uni02CD
ENCODING 717
SWIDTH 333 0
DWIDTH 6 0
BBX 4 1 1 -2
BITMAP
F0
ENDCHAR
STARTCHAR uni02CE
ENCODING 718
SWIDTH 333 0
DWIDTH 6 0
BBX 3 3 1 -4
BITMAP
C0
40
20
ENDCHAR
STARTCHAR uni02CF
ENCODING 719
SWIDTH 333 0
DWIDTH 6 0
BBX 3 3 1 -4
BITMAP
60
40
80
ENDCHAR
STARTCHAR breve
ENCODING 728
SWIDTH 333 0
DWIDTH 6 0
BBX 5 2 0 9
BITMAP
88
70
ENDCHAR
STARTCHAR dotaccent
ENCODING 729
SWIDTH 333 0
DWIDTH 6 0
BBX 1 2 2 9
BITMAP
80
80
ENDCHAR
STARTCHAR ring
ENCODING 730
SWIDTH 333 0
DWIDTH 6 0
BBX 3 4 1 8
BITMAP
40
A0
A0
40
ENDCHAR
STARTCHAR ogonek
ENCODING 731
SWIDTH 333 0
DWIDTH 6 0
BBX 4 4 0 -3
BITMAP
40
80
90
E0
ENDCHAR
STARTCHAR tilde
ENCODING 732
SWIDTH 333 0
DWIDTH 6 0
BBX 5 2 0 9
BITMAP
68
B0
ENDCHAR
STARTCHAR hungarumlaut
ENCODING 733
SWIDTH 333 0
DWIDTH 6 0
BBX 6 3 0 9
BITMAP
6C
48
90
ENDCHAR
STARTCHAR uni02EE
ENCODING 750
SWIDTH 556 0
DWIDTH 9 0
BBX 6 4 0 6
BITMAP
24
24
48
90
ENDCHAR
STARTCHAR uni037E
ENCODING 894
SWIDTH 333 0
DWIDTH 5 0
BBX 4 9 0 -2
BITMAP
10
10
00
00
00
20
20
40
80
ENDCHAR
STARTCHAR tonos
ENCODING 900
SWIDTH 333 0
DWIDTH 6 0
BBX 3 3 1 9
BITMAP
60
40
80
ENDCHAR
STARTCHAR dieresistonos
ENCODING 901
SWIDTH 333 0
DWIDTH 6 0
BBX 4 6 1 9
BITMAP
30
20
40
00
A0
A0
ENDCHAR
STARTCHAR anoteleia
ENCODING 903
SWIDTH 250 0
DWIDTH 4 0
BBX 1 2 2 3
BITMAP
80
80
ENDCHAR
STARTCHAR mu
ENCODING 956
SWIDTH 500 0
DWIDTH 8 0
BBX 8 12 -1 -4
BITMAP
31
11
33
22
66
4C
55
66
C0
80
80
80
ENDCHAR
STARTCHAR uni1E00
ENCODING 7680
SWIDTH 611 0
DWIDTH 10 0
BBX 10 16 -1 -5
BITMAP
0080
0180
0280
0480
0880
0880
1F80
2080
2080
4080
E1C0
0000
0400
0A00
0A00
0400
ENDCHAR
STARTCHAR uni1E01
ENCODING 7681
SWIDTH 500 0
DWIDTH 8 0
BBX 7 13 0 -5
BITMAP
1A
26
44
C4
8C
88
9A
64
00
10
28
28
10
ENDCHAR
STARTCHAR uni1E02
ENCODING 7682
SWIDTH 611 0
DWIDTH 10 0
BBX 9 14 0 0
BITMAP
0400
0400
0000
1F00
0980
1880
1080
1100
3E00
2300
2100
6100
4200
FC00
ENDCHAR
STARTCHAR uni1E03
ENCODING 7683
SWIDTH 500 0
DWIDTH 8 0
BBX 7 14 0 0
BITMAP
10
10
00
30
10
30
2C
32
62
42
46
C4
C8
B0
ENDCHAR
STARTCHAR uni1E04
ENCODING 7684
SWIDTH 611 0
DWIDTH 10 0
BBX 9 14 0 -3
BITMAP
1F00
0980
1880
1080
1100
3E00
2300
2100
6100
4200
FC00
0000
1000
1000
ENDCHAR
STARTCHAR uni1E05
ENCODING 7685
SWIDTH 500 0
DWIDTH 8 0
BBX 7 14 0 -3
BITMAP
30
10
30
2C
32
62
42
46
C4
C8
B0
00
20
20
ENDCHAR
STARTCHAR uni1E06
ENCODING 7686
SWIDTH 611 0
DWIDTH 10 0
BBX 9 13 0 -2
BITMAP
1F00
0980
1880
1080
1100
3E00
2300
2100
6100
4200
FC00
0000
3C00
ENDCHAR
STARTCHAR uni1E07
ENCODING 7687
SWIDTH 500 0
DWIDTH 8 0
BBX 7 13 0 -2
BITMAP
30
10
30
2C
32
62
42
46
C4
C8
B0
00
78
ENDCHAR
STARTCHAR uni1E08
ENCODING 7688
SWIDTH 667 0
DWIDTH 11 0
BBX 10 18 1 -3
BITMAP
0300
0200
0400
0000
0740
18C0
2040
4000
4000
8000
8000
8000
C080
6100
3E00
0800
2400
1800
ENDCHAR
STARTCHAR uni1E09
ENCODING 7689
SWIDTH 444 0
DWIDTH 7 0
BBX 6 15 1 -3
BITMAP
18
10
20
00
18
64
40
C0
80
80
C8
70
20
90
60
ENDCHAR
STARTCHAR uni1E0A
ENCODING 7690
SWIDTH 722 0
DWIDTH 12 0
BBX 11 14 0 0
BITMAP
0400
0400
0000
1F80
0840
1820
1020
1020
3020
2040
2040
6080
4300
FC00
ENDCHAR
STARTCHAR uni1E0B
ENCODING 7691
SWIDTH 500 0
DWIDTH 8 0
BBX 8 14 0 0
BITMAP
02
02
00
03
01
03
1A
26
44
C4
8C
8C
95
62
ENDCHAR
STARTCHAR uni1E0C
ENCODING 7692
SWIDTH 722 0
DWIDTH 12 0
BBX 11 14 0 -3
BITMAP
1F80
0840
1820
1020
1020
3020
2040
2040
6080
4300
FC00
0000
0800
0800
ENDCHAR
STARTCHAR uni1E0D
ENCODING 7693
SWIDTH 500 0
DWIDTH 8 0
BBX 8 14 0 -3
BITMAP
03
01
03
1A
26
44
C4
8C
8C
95
62
00
10
10
ENDCHAR
STARTCHAR uni1E0E
ENCODING 7694
SWIDTH 722 0
DWIDTH 12 0
BBX 11 13 0 -2
BITMAP
1F80
0840
1820
1020
1020
3020
2040
2040
6080
4300
FC00
0000
3C00
ENDCHAR
STARTCHAR uni1E0F
ENCODING 7695
SWIDTH 500 0
DWIDTH 8 0
BBX 8 13 0 -2
BITMAP
03
01
03
1A
26
44
C4
8C
8C
95
62
00
3C
ENDCHAR
STARTCHAR uni1E10
ENCODING 7696
SWIDTH 722 0
DWIDTH 12 0
BBX 11 14 0 -3
BITMAP
1F80
0840
1820
1020
1020
3020
2040
2040
6080
4300
FC00
0800
2400
1800
ENDCHAR
STARTCHAR uni1E11
ENCODING 7697
SWIDTH 500 0
DWIDTH 8 0
BBX 8 14 0 -3
BITMAP
03
01
03
1A
26
44
C4
8C
8C
95
6A
08
24
18
ENDCHAR
STARTCHAR uni1E12
ENCODING 7698
SWIDTH 722 0
DWIDTH 12 0
BBX 11 15 0 -4
BITMAP
1F80
0840
1820
1020
1020
3020
2040
2040
6080
4300
FC00
0000
0800
1C00
2200
ENDCHAR
STARTCHAR uni1E13
ENCODING 7699
SWIDTH 500 0
DWIDTH 8 0
BBX 8 15 0 -4
BITMAP
03
01
03
1A
26
44
C4
8C
8C
95
62
00
10
38
44
ENDCHAR
STARTCHAR uni1E14
ENCODING 7700
SWIDTH 611 0
DWIDTH 10 0
BBX 10 17 0 0
BITMAP
0C00
0400
0200
0000
0F00
0000
1FC0
0840
1800
1000
1100
3E00
2200
2000
6080
4180
FF00
ENDCHAR
STARTCHAR uni1E15
ENCODING 7701
SWIDTH 444 0
DWIDTH 7 0
BBX 6 14 1 0
BITMAP
60
20
10
00
78
00
18
64
44
98
E0
80
C8
70
ENDCHAR
STARTCHAR uni1E16
ENCODING 7702
SWIDTH 611 0
DWIDTH 10 0
BBX 10 17 0 0
BITMAP
0300
0200
0400
0000
0F00
0000
1FC0
0840
1800
1000
1100
3E00
2200
2000
6080
4180
FF00
ENDCHAR
STARTCHAR uni1E17
ENCODING 7703
SWIDTH 444 0
DWIDTH 7 0
BBX 6 14 1 0
BITMAP
18
10
20
00
78
00
18
64
44
98
E0
80
C8
70
ENDCHAR
STARTCHAR uni1E18
ENCODING 7704
SWIDTH 611 0
DWIDTH 10 0
BBX 10 15 0 -4
BITMAP
1FC0
0840
1800
1000
1100
3E00
2200
2000
6080
4180
FF00
0000
0800
1C00
2200
ENDCHAR
STARTCHAR uni1E19
ENCODING 7705
SWIDTH 444 0
DWIDTH 7 0
BBX 6 12 1 -4
BITMAP
18
64
44
98
E0
80
C8
70
00
20
70
88
ENDCHAR
STARTCHAR uni1E1A
ENCODING 7706
SWIDTH 611 0
DWIDTH 10 0
BBX 10 14 0 -3
BITMAP
1FC0
0840
1800
1000
1100
3E00
2200
2000
6080
4180
FF00
0000
1A00
2C00
ENDCHAR
STARTCHAR uni1E1B
ENCODING 7707
SWIDTH 444 0
DWIDTH 7 0
BBX 6 11 1 -3
BITMAP
18
64
44
98
E0
80
C8
70
00
68
B0
ENDCHAR
STARTCHAR uni1E1C
ENCODING 7708
SWIDTH 611 0
DWIDTH 10 0
BBX 10 17 0 -3
BITMAP
1100
0E00
0000
1FC0
0840
1800
1000
1100
3E00
2200
2000
6080
4180
FF00
0800
2400
1800
ENDCHAR
STARTCHAR uni1E1D
ENCODING 7709
SWIDTH 444 0
DWIDTH 7 0
BBX 6 14 1 -3
BITMAP
44
38
00
18
64
44
98
E0
80
C8
70
20
90
60
ENDCHAR
STARTCHAR uni1E1E
ENCODING 7710
SWIDTH 611 0
DWIDTH 10 0
BBX 10 14 0 0
BITMAP
0400
0400
0000
1FC0
0840
1800
1000
1100
3E00
2200
2000
6000
4000
E000
ENDCHAR
STARTCHAR uni1E1F
ENCODING 7711
SWIDTH 278 0
DWIDTH 5 0
BBX 8 18 -2 -4
BITMAP
04
04
00
03
05
04
04
3E
08
08
18
10
10
30
20
20
A0
C0
ENDCHAR
STARTCHAR uni1E20
ENCODING 7712
SWIDTH 722 0
DWIDTH 12 0
BBX 11 13 0 0
BITMAP
0F00
0000
0740
18C0
2040
4000
4000
81E0
80C0
8080
C080
6100
3E00
ENDCHAR
STARTCHAR uni1E21
ENCODING 7713
SWIDTH 500 0
DWIDTH 8 0
BBX 8 14 0 -4
BITMAP
3C
00
1C
33
22
22
26
1C
20
38
CC
84
8C
78
ENDCHAR
STARTCHAR uni1E22
ENCODING 7714
SWIDTH 722 0
DWIDTH 12 0
BBX 12 14 0 0
BITMAP
0200
0200
0000
1C70
0820
1860
1040
1040
3FC0
2080
2080
6180
4100
E380
ENDCHAR
STARTCHAR uni1E23
ENCODING 7715
SWIDTH 500 0
DWIDTH 8 0
BBX 7 14 0 0
BITMAP
10
10
00
30
10
30
26
2A
72
66
44
CC
8A
8C
ENDCHAR
STARTCHAR uni1E24
ENCODING 7716
SWIDTH 722 0
DWIDTH 12 0
BBX 12 14 0 -3
BITMAP
1C70
0820
1860
1040
1040
3FC0
2080
2080
6180
4100
E380
0000
0400
0400
ENDCHAR
STARTCHAR uni1E25
ENCODING 7717
SWIDTH 500 0
DWIDTH 8 0
BBX 7 14 0 -3
BITMAP
30
10
30
26
2A
72
66
44
CC
8A
8C
00
10
10
ENDCHAR
STARTCHAR uni1E26
ENCODING 7718
SWIDTH 722 0
DWIDTH 12 0
BBX 12 14 0 0
BITMAP
0500
0500
0000
1C70
0820
1860
1040
1040
3FC0
2080
2080
6180
4100
E380
ENDCHAR
STARTCHAR uni1E27
ENCODING 7719
SWIDTH 500 0
DWIDTH 8 0
BBX 7 14 0 0
BITMAP
28
28
00
30
10
30
26
2A
72
66
44
CC
8A
8C
ENDCHAR
STARTCHAR uni1E28
ENCODING 7720
SWIDTH 722 0
DWIDTH 12 0
BBX 12 14 0 -3
BITMAP
1C70
0820
1860
1040
1040
3FC0
2080
2080
6180
4100
E780
0400
1200
0C00
ENDCHAR
STARTCHAR uni1E29
ENCODING 7721
SWIDTH 500 0
DWIDTH 8 0
BBX 7 14 0 -3
BITMAP
30
10
30
26
2A
72
66
44
CC
8A
9C
10
48
30
ENDCHAR
STARTCHAR uni1E2A
ENCODING 7722
SWIDTH 722 0
DWIDTH 12 0
BBX 12 14 0 -3
BITMAP
1C70
0820
1860
1040
1040
3FC0
2080
2080
6180
4100
E380
0000
1100
0E00
ENDCHAR
STARTCHAR uni1E2B
ENCODING 7723
SWIDTH 500 0
DWIDTH 8 0
BBX 7 14 0 -3
BITMAP
30
10
30
26
2A
72
66
44
CC
8A
8C
00
44
38
ENDCHAR
STARTCHAR uni1E2C
ENCODING 7724
SWIDTH 333 0
DWIDTH 6 0
BBX 7 14 -1 -3
BITMAP
0E
04
0C
08
08
18
10
10
30
20
70
00
68
B0
ENDCHAR
STARTCHAR uni1E2D
ENCODING 7725
SWIDTH 278 0
DWIDTH 5 0
BBX 5 14 0 -3
BITMAP
08
08
00
10
30
10
30
20
60
50
60
00
68
B0
ENDCHAR
STARTCHAR uni1E2E
ENCODING 7726
SWIDTH 333 0
DWIDTH 6 0
BBX 7 18 0 0
BITMAP
06
04
08
00
12
12
00
1C
08
18
10
10
30
20
20
60
40
E0
ENDCHAR
STARTCHAR uni1E2F
ENCODING 7727
SWIDTH 278 0
DWIDTH 5 0
BBX 5 15 1 0
BITMAP
18
10
20
00
50
50
00
20
60
20
60
40
C0
A0
C0
ENDCHAR
STARTCHAR uni1E30
ENCODING 7728
SWIDTH 667 0
DWIDTH 11 0
BBX 10 15 0 0
BITMAP
0300
0200
0400
0000
1DC0
0880
1900
1200
1400
3C00
2400
2600
6200
4300
E780
ENDCHAR
STARTCHAR uni1E31
ENCODING 7729
SWIDTH 444 0
DWIDTH 7 0
BBX 7 15 0 0
BITMAP
18
10
20
00
30
10
30
26
24
68
50
70
D8
8A
8C
ENDCHAR
STARTCHAR uni1E32
ENCODING 7730
SWIDTH 667 0
DWIDTH 11 0
BBX 10 14 0 -3
BITMAP
1DC0
0880
1900
1200
1400
3C00
2400
2600
6200
4300
E780
0000
0800
0800
ENDCHAR
STARTCHAR uni1E33
ENCODING 7731
SWIDTH 444 0
DWIDTH 7 0
BBX 7 14 0 -3
BITMAP
30
10
30
26
24
68
50
70
D8
8A
8C
00
10
10
ENDCHAR
STARTCHAR uni1E34
ENCODING 7732
SWIDTH 667 0
DWIDTH 11 0
BBX 10 13 0 -2
BITMAP
1DC0
0880
1900
1200
1400
3C00
2400
2600
6200
4300
E780
0000
1E00
ENDCHAR
STARTCHAR uni1E35
ENCODING 7733
SWIDTH 444 0
DWIDTH 7 0
BBX 7 13 0 -2
BITMAP
30
10
30
26
24
68
50
70
D8
8A
8C
00
78
ENDCHAR
STARTCHAR uni1E36
ENCODING 7734
SWIDTH 556 0
DWIDTH 9 0
BBX 9 14 0 -3
BITMAP
1C00
0800
1800
1000
1000
3000
2000
2000
6080
4180
FF00
0000
0800
0800
ENDCHAR
STARTCHAR uni1E37
ENCODING 7735
SWIDTH 278 0
DWIDTH 5 0
BBX 4 14 1 -3
BITMAP
30
10
30
20
20
60
40
40
C0
A0
C0
00
40
40
ENDCHAR
STARTCHAR uni1E38
ENCODING 7736
SWIDTH 556 0
DWIDTH 9 0
BBX 9 16 0 -3
BITMAP
3C00
0000
1C00
0800
1800
1000
1000
3000
2000
2000
6080
4180
FF00
0000
0800
0800
ENDCHAR
STARTCHAR uni1E39
ENCODING 7737
SWIDTH 278 0
DWIDTH 5 0
BBX 5 16 1 -3
BITMAP
78
00
30
10
30
20
20
60
40
40
C0
A0
C0
00
40
40
ENDCHAR
STARTCHAR uni1E3A
ENCODING 7738
SWIDTH 556 0
DWIDTH 9 0
BBX 9 13 0 -2
BITMAP
1C00
0800
1800
1000
1000
3000
2000
2000
6080
4180
FF00
0000
3C00
ENDCHAR
STARTCHAR uni1E3B
ENCODING 7739
SWIDTH 278 0
DWIDTH 5 0
BBX 5 13 0 -2
BITMAP
18
08
18
10
10
30
20
20
60
50
60
00
F0
ENDCHAR
STARTCHAR uni1E3C
ENCODING 7740
SWIDTH 556 0
DWIDTH 9 0
BBX 9 15 0 -4
BITMAP
1C00
0800
1800
1000
1000
3000
2000
2000
6080
4180
FF00
0000
0800
1C00
2200
ENDCHAR
STARTCHAR uni1E3D
ENCODING 7741
SWIDTH 278 0
DWIDTH 5 0
BBX 5 15 0 -4
BITMAP
18
08
18
10
10
30
20
20
60
50
60
00
20
70
88
ENDCHAR
STARTCHAR uni1E3E
ENCODING 7742
SWIDTH 833 0
DWIDTH 14 0
BBX 15 15 0 0
BITMAP
0060
0040
0080
0000
1C0E
0C0C
1414
1428
1448
2498
2490
2510
4630
4620
E470
ENDCHAR
STARTCHAR uni1E3F
ENCODING 7743
SWIDTH 722 0
DWIDTH 12 0
BBX 11 12 0 0
BITMAP
0300
0200
0400
0000
6660
2AA0
3320
6660
4440
CCC0
88A0
88C0
ENDCHAR
STARTCHAR uni1E40
ENCODING 7744
SWIDTH 833 0
DWIDTH 14 0
BBX 15 14 0 0
BITMAP
0080
0080
0000
1C0E
0C0C
1414
1428
1448
2498
2490
2510
4630
4620
E470
ENDCHAR
STARTCHAR uni1E41
ENCODING 7745
SWIDTH 722 0
DWIDTH 12 0
BBX 11 11 0 0
BITMAP
0400
0400
0000
6660
2AA0
3320
6660
4440
CCC0
88A0
88C0
ENDCHAR
STARTCHAR uni1E42
ENCODING 7746
SWIDTH 833 0
DWIDTH 14 0
BBX 15 14 0 -3
BITMAP
1C0E
0C0C
1414
1428
1448
2498
2490
2510
4630
4620
E470
0000
0200
0200
ENDCHAR
STARTCHAR uni1E43
ENCODING 7747
SWIDTH 722 0
DWIDTH 12 0
BBX 11 11 0 -3
BITMAP
6660
2AA0
3320
6660
4440
CCC0
88A0
88C0
0000
0400
0400
ENDCHAR
STARTCHAR uni1E44
ENCODING 7748
SWIDTH 667 0
DWIDTH 11 0
BBX 13 14 -1 0
BITMAP
0100
0100
0000
1838
0810
1C10
1420
1620
2220
2340
2140
41C0
4080
E080
ENDCHAR
STARTCHAR uni1E45
ENCODING 7749
SWIDTH 500 0
DWIDTH 8 0
BBX 7 11 0 0
BITMAP
10
10
00
66
2A
32
66
44
CC
8A
8C
ENDCHAR
STARTCHAR uni1E46
ENCODING 7750
SWIDTH 667 0
DWIDTH 11 0
BBX 13 14 -1 -3
BITMAP
1838
0810
1C10
1420
1620
2220
2340
2140
41C0
4080
E080
0000
0400
0400
ENDCHAR
STARTCHAR uni1E47
ENCODING 7751
SWIDTH 500 0
DWIDTH 8 0
BBX 7 11 0 -3
BITMAP
66
2A
32
66
44
CC
8A
8C
00
10
10
ENDCHAR
STARTCHAR uni1E48
ENCODING 7752
SWIDTH 667 0
DWIDTH 11 0
BBX 13 13 -1 -2
BITMAP
1838
0810
1C10
1420
1620
2220
2340
2140
41C0
4080
E080
0000
0F00
ENDCHAR
STARTCHAR uni1E49
ENCODING 7753
SWIDTH 500 0
DWIDTH 8 0
BBX 7 10 0 -2
BITMAP
66
2A
32
66
44
CC
8A
8C
00
78
ENDCHAR
STARTCHAR uni1E4A
ENCODING 7754
SWIDTH 667 0
DWIDTH 11 0
BBX 13 15 -1 -4
BITMAP
1838
0810
1C10
1420
1620
2220
2340
2140
41C0
4080
E080
0000
0400
0E00
1100
ENDCHAR
STARTCHAR uni1E4B
ENCODING 7755
SWIDTH 500 0
DWIDTH 8 0
BBX 7 12 0 -4
BITMAP
66
2A
32
66
44
CC
8A
8C
00
10
38
44
ENDCHAR
STARTCHAR uni1E4C
ENCODING 7756
SWIDTH 722 0
DWIDTH 12 0
BBX 10 18 1 0
BITMAP
0300
0200
0400
0000
0C80
1300
0000
0E00
3180
4080
40C0
8040
8040
80C0
C080
4180
6300
1C00
ENDCHAR
STARTCHAR uni1E4D
ENCODING 7757
SWIDTH 500 0
DWIDTH 8 0
BBX 7 15 0 0
BITMAP
0C
08
10
00
1A
2C
00
1C
66
42
C2
86
84
CC
70
ENDCHAR
STARTCHAR uni1E4E
ENCODING 7758
SWIDTH 722 0
DWIDTH 12 0
BBX 10 17 1 0
BITMAP
0A00
0A00
0000
0C80
1300
0000
0E00
3180
4080
40C0
8040
8040
80C0
C080
4180
6300
1C00
ENDCHAR
STARTCHAR uni1E4F
ENCODING 7759
SWIDTH 500 0
DWIDTH 8 0
BBX 7 14 0 0
BITMAP
14
14
00
1A
2C
00
1C
66
42
C2
86
84
CC
70
ENDCHAR
STARTCHAR uni1E50
ENCODING 7760
SWIDTH 722 0
DWIDTH 12 0
BBX 10 17 1 0
BITMAP
1800
0800
0400
0000
1E00
0000
0E00
3180
4080
40C0
8040
8040
80C0
C080
4180
6300
1C00
ENDCHAR
STARTCHAR uni1E51
ENCODING 7761
SWIDTH 500 0
DWIDTH 8 0
BBX 7 14 0 0
BITMAP
30
10
08
00
3C
00
1C
66
42
C2
86
84
CC
70
ENDCHAR
STARTCHAR uni1E52
ENCODING 7762
SWIDTH 722 0
DWIDTH 12 0
BBX 10 17 1 0
BITMAP
0600
0400
0800
0000
1E00
0000
0E00
3180
4080
40C0
8040
8040
80C0
C080
4180
6300
1C00
ENDCHAR
STARTCHAR uni1E53
ENCODING 7763
SWIDTH 500 0
DWIDTH 8 0
BBX 7 14 0 0
BITMAP
0C
08
10
00
3C
00
1C
66
42
C2
86
84
CC
70
ENDCHAR
STARTCHAR uni1E54
ENCODING 7764
SWIDTH 611 0
DWIDTH 10 0
BBX 10 15 0 0
BITMAP
0300
0200
0400
0000
1F80
0840
1840
1040
1180
3E00
2000
2000
6000
4000
E000
ENDCHAR
STARTCHAR uni1E55
ENCODING 7765
SWIDTH 500 0
DWIDTH 8 0
BBX 9 16 -2 -4
BITMAP
0300
0200
0400
0000
1B00
0C80
1880
1080
1180
3100
3200
2C00
6000
4000
4000
E000
ENDCHAR
STARTCHAR uni1E56
ENCODING 7766
SWIDTH 611 0
DWIDTH 10 0
BBX 10 14 0 0
BITMAP
0400
0400
0000
1F80
0840
1840
1040
1180
3E00
2000
2000
6000
4000
E000
ENDCHAR
STARTCHAR uni1E57
ENCODING 7767
SWIDTH 500 0
DWIDTH 8 0
BBX 9 15 -2 -4
BITMAP
0400
0400
0000
1B00
0C80
1880
1080
1180
3100
3200
2C00
6000
4000
4000
E000
ENDCHAR
STARTCHAR uni1E58
ENCODING 7768
SWIDTH 611 0
DWIDTH 10 0
BBX 10 14 0 0
BITMAP
0400
0400
0000
1F80
0840
1840
1040
1180
3E00
2400
2200
6300
4100
E180
ENDCHAR
STARTCHAR uni1E59
ENCODING 7769
SWIDTH 389 0
DWIDTH 6 0
BBX 6 11 0 0
BITMAP
10
10
00
64
2C
30
60
40
C0
80
80
ENDCHAR
STARTCHAR uni1E5A
ENCODING 7770
SWIDTH 611 0
DWIDTH 10 0
BBX 10 14 0 -3
BITMAP
1F80
0840
1840
1040
1180
3E00
2400
2200
6300
4100
E180
0000
0800
0800
ENDCHAR
STARTCHAR uni1E5B
ENCODING 7771
SWIDTH 389 0
DWIDTH 6 0
BBX 6 11 0 -3
BITMAP
64
2C
30
60
40
C0
80
80
00
40
40
ENDCHAR
STARTCHAR uni1E5C
ENCODING 7772
SWIDTH 611 0
DWIDTH 10 0
BBX 10 16 0 -3
BITMAP
0F00
0000
1F80
0840
1840
1040
1180
3E00
2400
2200
6300
4100
E180
0000
0800
0800
ENDCHAR
STARTCHAR uni1E5D
ENCODING 7773
SWIDTH 389 0
DWIDTH 6 0
BBX 6 13 0 -3
BITMAP
78
00
64
2C
30
60
40
C0
80
80
00
40
40
ENDCHAR
STARTCHAR uni1E5E
ENCODING 7774
SWIDTH 611 0
DWIDTH 10 0
BBX 10 13 0 -2
BITMAP
1F80
0840
1840
1040
1180
3E00
2400
2200
6300
4100
E180
0000
1E00
ENDCHAR
STARTCHAR uni1E5F
ENCODING 7775
SWIDTH 389 0
DWIDTH 6 0
BBX 6 10 0 -2
BITMAP
64
2C
30
60
40
C0
80
80
00
F0
ENDCHAR
STARTCHAR uni1E60
ENCODING 7776
SWIDTH 500 0
DWIDTH 8 0
BBX 8 14 0 0
BITMAP
08
08
00
1D
33
21
30
18
0C
06
02
82
C4
B8
ENDCHAR
STARTCHAR uni1E61
ENCODING 7777
SWIDTH 389 0
DWIDTH 6 0
BBX 5 11 0 0
BITMAP
20
20
00
38
48
40
60
30
10
90
E0
ENDCHAR
STARTCHAR uni1E62
ENCODING 7778
SWIDTH 500 0
DWIDTH 8 0
BBX 8 14 0 -3
BITMAP
1D
33
21
30
18
0C
06
02
82
C4
B8
00
10
10
ENDCHAR
STARTCHAR uni1E63
ENCODING 7779
SWIDTH 389 0
DWIDTH 6 0
BBX 5 11 0 -3
BITMAP
38
48
40
60
30
10
90
E0
00
20
20
ENDCHAR
STARTCHAR uni1E64
ENCODING 7780
SWIDTH 500 0
DWIDTH 8 0
BBX 8 18 0 0
BITMAP
04
04
00
06
04
08
00
1D
33
21
30
18
0C
06
02
82
C4
B8
ENDCHAR
STARTCHAR uni1E65
ENCODING 7781
SWIDTH 389 0
DWIDTH 6 0
BBX 5 15 0 0
BITMAP
10
10
00
18
10
20
00
38
48
40
60
30
10
90
E0
ENDCHAR
STARTCHAR uni1E66
ENCODING 7782
SWIDTH 500 0
DWIDTH 8 0
BBX 8 16 0 0
BITMAP
04
04
00
11
0E
04
00
1D
33
21
1C
06
02
82
C4
B8
ENDCHAR
STARTCHAR uni1E67
ENCODING 7783
SWIDTH 389 0
DWIDTH 6 0
BBX 6 15 0 0
BITMAP
10
10
00
44
38
10
00
38
48
40
60
30
10
90
E0
ENDCHAR
STARTCHAR uni1E68
ENCODING 7784
SWIDTH 500 0
DWIDTH 8 0
BBX 8 17 0 -3
BITMAP
08
08
00
1D
33
21
30
18
0C
06
02
82
C4
B8
00
10
10
ENDCHAR
STARTCHAR uni1E69
ENCODING 7785
SWIDTH 389 0
DWIDTH 6 0
BBX 5 14 0 -3
BITMAP
20
20
00
38
48
40
60
30
10
90
E0
00
20
20
ENDCHAR
STARTCHAR uni1E6A
ENCODING 7786
SWIDTH 556 0
DWIDTH 9 0
BBX 9 14 1 0
BITMAP
0800
0800
0000
FF80
8880
1800
1000
1000
3000
2000
2000
6000
4000
E000
ENDCHAR
STARTCHAR uni1E6B
ENCODING 7787
SWIDTH 278 0
DWIDTH 5 0
BBX 5 13 0 0
BITMAP
20
20
00
10
10
78
20
60
40
40
80
A0
C0
ENDCHAR
STARTCHAR uni1E6C
ENCODING 7788
SWIDTH 556 0
DWIDTH 9 0
BBX 9 14 1 -3
BITMAP
FF80
8880
1800
1000
1000
3000
2000
2000
6000
4000
E000
0000
2000
2000
ENDCHAR
STARTCHAR uni1E6D
ENCODING 7789
SWIDTH 278 0
DWIDTH 5 0
BBX 5 13 0 -3
BITMAP
10
10
78
20
60
40
40
80
A0
C0
00
40
40
ENDCHAR
STARTCHAR uni1E6E
ENCODING 7790
SWIDTH 556 0
DWIDTH 9 0
BBX 9 13 1 -2
BITMAP
FF80
8880
1800
1000
1000
3000
2000
2000
6000
4000
E000
0000
7800
ENDCHAR
STARTCHAR uni1E6F
ENCODING 7791
SWIDTH 278 0
DWIDTH 5 0
BBX 5 12 0 -2
BITMAP
10
10
78
20
60
40
40
80
A0
C0
00
F0
ENDCHAR
STARTCHAR uni1E70
ENCODING 7792
SWIDTH 556 0
DWIDTH 9 0
BBX 9 15 1 -4
BITMAP
FF80
8880
1800
1000
1000
3000
2000
2000
6000
4000
E000
0000
2000
7000
8800
ENDCHAR
STARTCHAR uni1E71
ENCODING 7793
SWIDTH 278 0
DWIDTH 5 0
BBX 6 14 -1 -4
BITMAP
08
08
3C
10
30
20
20
40
50
60
00
20
70
88
ENDCHAR
STARTCHAR uni1E72
ENCODING 7794
SWIDTH 722 0
DWIDTH 12 0
BBX 10 14 2 -3
BITMAP
71C0
2080
6080
4100
4100
C100
8200
8200
8200
8400
7800
0000
2800
2800
ENDCHAR
STARTCHAR uni1E73
ENCODING 7795
SWIDTH 500 0
DWIDTH 8 0
BBX 7 11 0 -3
BITMAP
62
22
66
44
CC
98
AA
CC
00
28
28
ENDCHAR
STARTCHAR uni1E74
ENCODING 7796
SWIDTH 722 0
DWIDTH 12 0
BBX 10 14 2 -3
BITMAP
71C0
2080
6080
4100
4100
C100
8200
8200
8200
8400
7800
0000
3400
5800
ENDCHAR
STARTCHAR uni1E75
ENCODING 7797
SWIDTH 500 0
DWIDTH 8 0
BBX 7 11 0 -3
BITMAP
62
22
66
44
CC
98
AA
CC
00
34
58
ENDCHAR
STARTCHAR uni1E76
ENCODING 7798
SWIDTH 722 0
DWIDTH 12 0
BBX 10 15 2 -4
BITMAP
71C0
2080
6080
4100
4100
C100
8200
8200
8200
8400
7800
0000
1000
3800
4400
ENDCHAR
STARTCHAR uni1E77
ENCODING 7799
SWIDTH 500 0
DWIDTH 8 0
BBX 7 12 0 -4
BITMAP
62
22
66
44
CC
98
AA
CC
00
10
38
44
ENDCHAR
STARTCHAR uni1E78
ENCODING 7800
SWIDTH 722 0
DWIDTH 12 0
BBX 10 18 2 0
BITMAP
0300
0200
0400
0000
0D00
1600
0000
71C0
2080
6080
4100
4100
C100
8200
8200
8200
8400
7800
ENDCHAR
STARTCHAR uni1E79
ENCODING 7801
SWIDTH 500 0
DWIDTH 8 0
BBX 7 15 0 0
BITMAP
0C
08
10
00
1A
2C
00
62
22
66
44
CC
98
AA
CC
ENDCHAR
STARTCHAR uni1E7A
ENCODING 7802
SWIDTH 722 0
DWIDTH 12 0
BBX 10 16 2 0
BITMAP
0A00
0A00
0000
1E00
0000
71C0
2080
6080
4100
4100
C100
8200
8200
8200
8400
7800
ENDCHAR
STARTCHAR uni1E7B
ENCODING 7803
SWIDTH 500 0
DWIDTH 8 0
BBX 7 13 0 0
BITMAP
28
28
00
3C
00
62
22
66
44
CC
98
AA
CC
ENDCHAR
STARTCHAR uni1E7C
ENCODING 7804
SWIDTH 611 0
DWIDTH 10 0
BBX 10 14 1 0
BITMAP
0D00
1600
0000
F1C0
4080
4100
6100
6200
2400
2400
2800
3000
3000
2000
ENDCHAR
STARTCHAR uni1E7D
ENCODING 7805
SWIDTH 444 0
DWIDTH 7 0
BBX 7 11 0 0
BITMAP
34
58
00
C6
42
42
64
64
28
30
20
ENDCHAR
STARTCHAR uni1E7E
ENCODING 7806
SWIDTH 611 0
DWIDTH 10 0
BBX 10 14 1 -3
BITMAP
F1C0
4080
4100
6100
6200
2400
2400
2800
3000
3000
2000
0000
1000
1000
ENDCHAR
STARTCHAR uni1E7F
ENCODING 7807
SWIDTH 444 0
DWIDTH 7 0
BBX 7 11 0 -3
BITMAP
C6
42
42
64
64
28
30
20
00
10
10
ENDCHAR
STARTCHAR Wgrave
ENCODING 7808
SWIDTH 833 0
DWIDTH 14 0
BBX 15 15 0 0
BITMAP
0600
0200
0100
0000
E70E
4204
4208
6308
6710
2520
2920
3140
3180
2180
2100
ENDCHAR
STARTCHAR wgrave
ENCODING 7809
SWIDTH 667 0
DWIDTH 11 0
BBX 11 12 0 0
BITMAP
0C00
0400
0200
0000
4260
C220
4620
6640
6A40
2A80
3300
2200
ENDCHAR
STARTCHAR Wacute
ENCODING 7810
SWIDTH 833 0
DWIDTH 14 0
BBX 15 15 0 0
BITMAP
0180
0100
0200
0000
E70E
4204
4208
6308
6710
2520
2920
3140
3180
2180
2100
ENDCHAR
STARTCHAR wacute
ENCODING 7811
SWIDTH 667 0
DWIDTH 11 0
BBX 11 12 0 0
BITMAP
0300
0200
0400
0000
4260
C220
4620
6640
6A40
2A80
3300
2200
ENDCHAR
STARTCHAR Wdieresis
ENCODING 7812
SWIDTH 833 0
DWIDTH 14 0
BBX 15 14 0 0
BITMAP
0280
0280
0000
E70E
4204
4208
6308
6710
2520
2920
3140
3180
2180
2100
ENDCHAR
STARTCHAR wdieresis
ENCODING 7813
SWIDTH 667 0
DWIDTH 11 0
BBX 11 11 0 0
BITMAP
0A00
0A00
0000
4260
C220
4620
6640
6A40
2A80
3300
2200
ENDCHAR
STARTCHAR uni1E86
ENCODING 7814
SWIDTH 833 0
DWIDTH 14 0
BBX 15 14 0 0
BITMAP
0100
0100
0000
E70E
4204
4208
6308
6710
2520
2920
3140
3180
2180
2100
ENDCHAR
STARTCHAR uni1E87
ENCODING 7815
SWIDTH 667 0
DWIDTH 11 0
BBX 11 11 0 0
BITMAP
0400
0400
0000
4260
C220
4620
6640
6A40
2A80
3300
2200
ENDCHAR
STARTCHAR uni1E88
ENCODING 7816
SWIDTH 833 0
DWIDTH 14 0
BBX 15 14 0 -3
BITMAP
E70E
4204
4208
6308
6710
2520
2920
3140
3180
2180
2100
0000
0200
0200
ENDCHAR
STARTCHAR uni1E89
ENCODING 7817
SWIDTH 667 0
DWIDTH 11 0
BBX 11 11 0 -3
BITMAP
4260
C220
4620
6640
6A40
2A80
3300
2200
0000
0400
0400
ENDCHAR
STARTCHAR uni1E8A
ENCODING 7818
SWIDTH 611 0
DWIDTH 10 0
BBX 10 14 0 0
BITMAP
0400
0400
0000
79C0
3080
1100
1A00
0A00
0C00
1400
1600
2200
4300
E780
ENDCHAR
STARTCHAR uni1E8B
ENCODING 7819
SWIDTH 444 0
DWIDTH 7 0
BBX 7 11 0 0
BITMAP
10
10
00
66
28
18
18
18
28
2A
C4
ENDCHAR
STARTCHAR uni1E8C
ENCODING 7820
SWIDTH 611 0
DWIDTH 10 0
BBX 10 14 0 0
BITMAP
0A00
0A00
0000
79C0
3080
1100
1A00
0A00
0C00
1400
1600
2200
4300
E780
ENDCHAR
STARTCHAR uni1E8D
ENCODING 7821
SWIDTH 444 0
DWIDTH 7 0
BBX 7 11 0 0
BITMAP
28
28
00
66
28
18
18
18
28
2A
C4
ENDCHAR
STARTCHAR uni1E8E
ENCODING 7822
SWIDTH 556 0
DWIDTH 9 0
BBX 9 14 1 0
BITMAP
0800
0800
0000
E380
4100
6200
2400
2800
1000
1000
3000
2000
2000
7000
ENDCHAR
STARTCHAR uni1E8F
ENCODING 7823
SWIDTH 444 0
DWIDTH 7 0
BBX 7 15 -1 -4
BITMAP
10
10
00
66
22
22
32
14
14
18
18
10
20
A0
C0
ENDCHAR
STARTCHAR uni1E90
ENCODING 7824
SWIDTH 556 0
DWIDTH 9 0
BBX 9 15 0 0
BITMAP
0400
0E00
1100
0000
3F80
4300
0200
0400
0C00
0800
1800
1000
2000
6100
FE00
ENDCHAR
STARTCHAR uni1E91
ENCODING 7825
SWIDTH 389 0
DWIDTH 6 0
BBX 6 12 0 0
BITMAP
10
38
44
00
7C
84
08
10
30
20
44
F8
ENDCHAR
STARTCHAR uni1E92
ENCODING 7826
SWIDTH 556 0
DWIDTH 9 0
BBX 9 14 0 -3
BITMAP
3F80
4300
0200
0400
0C00
0800
1800
1000
2000
6100
FE00
0000
1000
1000
ENDCHAR
STARTCHAR uni1E93
ENCODING 7827
SWIDTH 389 0
DWIDTH 6 0
BBX 6 11 0 -3
BITMAP
7C
84
08
10
30
20
44
F8
00
20
20
ENDCHAR
STARTCHAR uni1E94
ENCODING 7828
SWIDTH 556 0
DWIDTH 9 0
BBX 9 13 0 -2
BITMAP
3F80
4300
0200
0400
0C00
0800
1800
1000
2000
6100
FE00
0000
3C00
ENDCHAR
STARTCHAR uni1E95
ENCODING 7829
SWIDTH 389 0
DWIDTH 6 0
BBX 6 10 0 -2
BITMAP
7C
84
08
10
30
20
44
F8
00
78
ENDCHAR
STARTCHAR uni1E96
ENCODING 7830
SWIDTH 500 0
DWIDTH 8 0
BBX 7 13 0 -2
BITMAP
30
10
30
26
2A
72
66
44
CC
8A
8C
00
78
ENDCHAR
STARTCHAR uni1E97
ENCODING 7831
SWIDTH 278 0
DWIDTH 5 0
BBX 5 13 0 0
BITMAP
50
50
00
10
10
78
20
60
40
40
80
A0
C0
ENDCHAR
STARTCHAR uni1E98
ENCODING 7832
SWIDTH 667 0
DWIDTH 11 0
BBX 11 13 0 0
BITMAP
0400
0A00
0A00
0400
0000
4260
C220
4620
6640
6A40
2A80
3300
2200
ENDCHAR
STARTCHAR uni1E99
ENCODING 7833
SWIDTH 444 0
DWIDTH 7 0
BBX 7 17 -1 -4
BITMAP
10
28
28
10
00
66
22
22
32
14
14
18
18
10
20
A0
C0
ENDCHAR
STARTCHAR uni1EA0
ENCODING 7840
SWIDTH 611 0
DWIDTH 10 0
BBX 10 14 -1 -3
BITMAP
0080
0180
0280
0480
0880
0880
1F80
2080
2080
4080
E1C0
0000
0400
0400
ENDCHAR
STARTCHAR uni1EA1
ENCODING 7841
SWIDTH 500 0
DWIDTH 8 0
BBX 7 11 0 -3
BITMAP
1A
26
44
C4
8C
88
9A
64
00
10
10
ENDCHAR
STARTCHAR uni1EA4
ENCODING 7844
SWIDTH 611 0
DWIDTH 10 0
BBX 11 19 -1 0
BITMAP
00C0
0080
0100
0000
0080
01C0
0220
0000
0080
0180
0280
0480
0880
0880
1F80
2080
2080
4080
E1C0
ENDCHAR
STARTCHAR uni1EA5
ENCODING 7845
SWIDTH 500 0
DWIDTH 8 0
BBX 7 16 0 0
BITMAP
0C
08
10
00
08
1C
22
00
1A
26
44
C4
8C
88
9A
64
ENDCHAR
STARTCHAR uni1EA6
ENCODING 7846
SWIDTH 611 0
DWIDTH 10 0
BBX 11 19 -1 0
BITMAP
0600
0200
0100
0000
0080
01C0
0220
0000
0080
0180
0280
0480
0880
0880
1F80
2080
2080
4080
E1C0
ENDCHAR
STARTCHAR uni1EA7
ENCODING 7847
SWIDTH 500 0
DWIDTH 8 0
BBX 7 16 0 0
BITMAP
30
10
08
00
08
1C
22
00
1A
26
44
C4
8C
88
9A
64
ENDCHAR
STARTCHAR uni1EAA
ENCODING 7850
SWIDTH 611 0
DWIDTH 10 0
BBX 11 18 -1 0
BITMAP
0340
0580
0000
0080
01C0
0220
0000
0080
0180
0280
0480
0880
0880
1F80
2080
2080
4080
E1C0
ENDCHAR
STARTCHAR uni1EAB
ENCODING 7851
SWIDTH 500 0
DWIDTH 8 0
BBX 7 15 0 0
BITMAP
1A
2C
00
08
1C
22
00
1A
26
44
C4
8C
88
9A
64
ENDCHAR
STARTCHAR uni1EAC
ENCODING 7852
SWIDTH 611 0
DWIDTH 10 0
BBX 10 18 -1 -3
BITMAP
0200
0700
0880
0000
0080
0180
0280
0480
0880
0880
1F80
2080
2080
4080
E1C0
0000
0400
0400
ENDCHAR
STARTCHAR uni1EAD
ENCODING 7853
SWIDTH 500 0
DWIDTH 8 0
BBX 7 15 0 -3
BITMAP
08
1C
22
00
1A
26
44
C4
8C
88
9A
64
00
10
10
ENDCHAR
STARTCHAR uni1EAE
ENCODING 7854
SWIDTH 611 0
DWIDTH 10 0
BBX 10 18 -1 0
BITMAP
0300
0200
0400
0000
0880
0700
0000
0080
0180
0280
0480
0880
0880
1F80
2080
2080
4080
E1C0
ENDCHAR
STARTCHAR uni1EAF
ENCODING 7855
SWIDTH 500 0
DWIDTH 8 0
BBX 7 15 0 0
BITMAP
0C
08
10
00
22
1C
00
1A
26
44
C4
8C
88
9A
64
ENDCHAR
STARTCHAR uni1EB0
ENCODING 7856
SWIDTH 611 0
DWIDTH 10 0
BBX 10 18 -1 0
BITMAP
0C00
0400
0200
0000
0880
0700
0000
0080
0180
0280
0480
0880
0880
1F80
2080
2080
4080
E1C0
ENDCHAR
STARTCHAR uni1EB1
ENCODING 7857
SWIDTH 500 0
DWIDTH 8 0
BBX 7 15 0 0
BITMAP
30
10
08
00
22
1C
00
1A
26
44
C4
8C
88
9A
64
ENDCHAR
STARTCHAR uni1EB4
ENCODING 7860
SWIDTH 611 0
DWIDTH 10 0
BBX 10 17 -1 0
BITMAP
0680
0B00
0000
0880
0700
0000
0080
0180
0280
0480
0880
0880
1F80
2080
2080
4080
E1C0
ENDCHAR
STARTCHAR uni1EB5
ENCODING 7861
SWIDTH 500 0
DWIDTH 8 0
BBX 7 14 0 0
BITMAP
1A
2C
00
22
1C
00
1A
26
44
C4
8C
88
9A
64
ENDCHAR
STARTCHAR uni1EB6
ENCODING 7862
SWIDTH 611 0
DWIDTH 10 0
BBX 10 17 -1 -3
BITMAP
0880
0700
0000
0080
0180
0280
0480
0880
0880
1F80
2080
2080
4080
E1C0
0000
0400
0400
ENDCHAR
STARTCHAR uni1EB7
ENCODING 7863
SWIDTH 500 0
DWIDTH 8 0
BBX 7 14 0 -3
BITMAP
22
1C
00
1A
26
44
C4
8C
88
9A
64
00
10
10
ENDCHAR
STARTCHAR uni1EB8
ENCODING 7864
SWIDTH 611 0
DWIDTH 10 0
BBX 10 14 0 -3
BITMAP
1FC0
0840
1800
1000
1100
3E00
2200
2000
6080
4180
FF00
0000
0800
0800
ENDCHAR
STARTCHAR uni1EB9
ENCODING 7865
SWIDTH 444 0
DWIDTH 7 0
BBX 6 11 1 -3
BITMAP
18
64
44
98
E0
80
C8
70
00
20
20
ENDCHAR
STARTCHAR uni1EBC
ENCODING 7868
SWIDTH 611 0
DWIDTH 10 0
BBX 10 14 0 0
BITMAP
0D00
1600
0000
1FC0
0840
1800
1000
1100
3E00
2200
2000
6080
4180
FF00
ENDCHAR
STARTCHAR uni1EBD
ENCODING 7869
SWIDTH 444 0
DWIDTH 7 0
BBX 6 11 1 0
BITMAP
34
58
00
18
64
44
98
E0
80
C8
70
ENDCHAR
STARTCHAR uni1EBE
ENCODING 7870
SWIDTH 611 0
DWIDTH 10 0
BBX 10 19 0 0
BITMAP
0180
0100
0200
0000
0100
0380
0440
0000
1FC0
0840
1800
1000
1100
3E00
2200
2000
6080
4180
FF00
ENDCHAR
STARTCHAR uni1EBF
ENCODING 7871
SWIDTH 444 0
DWIDTH 7 0
BBX 7 16 1 0
BITMAP
0C
08
10
00
08
1C
22
00
18
64
44
98
E0
80
88
70
ENDCHAR
STARTCHAR uni1EC0
ENCODING 7872
SWIDTH 611 0
DWIDTH 10 0
BBX 10 19 0 0
BITMAP
0600
0200
0100
0000
0100
0380
0440
0000
1FC0
0840
1800
1000
1100
3E00
2200
2000
6080
4180
FF00
ENDCHAR
STARTCHAR uni1EC1
ENCODING 7873
SWIDTH 444 0
DWIDTH 7 0
BBX 7 16 1 0
BITMAP
30
10
08
00
08
1C
22
00
18
64
44
98
E0
80
88
70
ENDCHAR
STARTCHAR uni1EC4
ENCODING 7876
SWIDTH 611 0
DWIDTH 10 0
BBX 10 18 0 0
BITMAP
0680
0B00
0000
0100
0380
0440
0000
1FC0
0840
1800
1000
1100
3E00
2200
2000
6080
4180
FF00
ENDCHAR
STARTCHAR uni1EC5
ENCODING 7877
SWIDTH 444 0
DWIDTH 7 0
BBX 7 15 1 0
BITMAP
1A
2C
00
08
1C
22
00
18
64
44
98
E0
80
88
70
ENDCHAR
STARTCHAR uni1EC6
ENCODING 7878
SWIDTH 611 0
DWIDTH 10 0
BBX 10 18 0 -3
BITMAP
0400
0E00
1100
0000
1FC0
0840
1800
1000
1100
3E00
2200
2000
6080
4180
FF00
0000
0800
0800
ENDCHAR
STARTCHAR uni1EC7
ENCODING 7879
SWIDTH 444 0
DWIDTH 7 0
BBX 6 15 1 -3
BITMAP
10
38
44
00
18
64
44
98
E0
80
C8
70
00
20
20
ENDCHAR
STARTCHAR uni1ECA
ENCODING 7882
SWIDTH 333 0
DWIDTH 6 0
BBX 6 14 0 -3
BITMAP
1C
08
18
10
10
30
20
20
60
40
E0
00
20
20
ENDCHAR
STARTCHAR uni1ECB
ENCODING 7883
SWIDTH 278 0
DWIDTH 5 0
BBX 4 14 1 -3
BITMAP
10
10
00
20
60
20
60
40
C0
A0
C0
00
40
40
ENDCHAR
STARTCHAR uni1ECC
ENCODING 7884
SWIDTH 722 0
DWIDTH 12 0
BBX 10 14 1 -3
BITMAP
0E00
3180
4080
40C0
8040
8040
80C0
C080
4180
6300
1C00
0000
0800
0800
ENDCHAR
STARTCHAR uni1ECD
ENCODING 7885
SWIDTH 500 0
DWIDTH 8 0
BBX 7 11 0 -3
BITMAP
1C
66
42
C2
86
84
CC
70
00
10
10
ENDCHAR
STARTCHAR uni1ED0
ENCODING 7888
SWIDTH 722 0
DWIDTH 12 0
BBX 10 19 1 0
BITMAP
0300
0200
0400
0000
0200
0700
0880
0000
0E00
3180
4080
40C0
8040
8040
80C0
C080
4180
6300
1C00
ENDCHAR
STARTCHAR uni1ED1
ENCODING 7889
SWIDTH 500 0
DWIDTH 8 0
BBX 7 16 0 0
BITMAP
0C
08
10
00
08
1C
22
00
1C
66
42
C2
86
84
CC
70
ENDCHAR
STARTCHAR uni1ED2
ENCODING 7890
SWIDTH 722 0
DWIDTH 12 0
BBX 10 19 1 0
BITMAP
0C00
0400
0200
0000
0200
0700
0880
0000
0E00
3180
4080
40C0
8040
8040
80C0
C080
4180
6300
1C00
ENDCHAR
STARTCHAR uni1ED3
ENCODING 7891
SWIDTH 500 0
DWIDTH 8 0
BBX 7 16 0 0
BITMAP
30
10
08
00
08
1C
22
00
1C
66
42
C2
86
84
CC
70
ENDCHAR
STARTCHAR uni1ED6
ENCODING 7894
SWIDTH 722 0
DWIDTH 12 0
BBX 10 18 1 0
BITMAP
0680
0B00
0000
0200
0700
0880
0000
0E00
3180
4080
40C0
8040
8040
80C0
C080
4180
6300
1C00
ENDCHAR
STARTCHAR uni1ED7
ENCODING 7895
SWIDTH 500 0
DWIDTH 8 0
BBX 7 15 0 0
BITMAP
1A
2C
00
08
1C
22
00
1C
66
42
C2
86
84
CC
70
ENDCHAR
STARTCHAR uni1ED8
ENCODING 7896
SWIDTH 722 0
DWIDTH 12 0
BBX 10 18 1 -3
BITMAP
0400
0E00
1100
0000
0E00
3180
4080
40C0
8040
8040
80C0
C080
4180
6300
1C00
0000
0800
0800
ENDCHAR
STARTCHAR uni1ED9
ENCODING 7897
SWIDTH 500 0
DWIDTH 8 0
BBX 7 15 0 -3
BITMAP
10
38
44
00
1C
66
42
C2
86
84
CC
70
00
10
10
ENDCHAR
STARTCHAR uni1EDA
ENCODING 7898
SWIDTH 722 0
DWIDTH 12 0
BBX 12 15 1 0
BITMAP
0180
0100
0200
0000
0E10
3190
40A0
40C0
8040
8040
80C0
C080
4180
6300
1C00
ENDCHAR
STARTCHAR uni1EDB
ENCODING 7899
SWIDTH 500 0
DWIDTH 8 0
BBX 10 12 0 0
BITMAP
0600
0400
0800
0000
1C40
6640
4280
C300
8600
8400
CC00
7000
ENDCHAR
STARTCHAR uni1EDC
ENCODING 7900
SWIDTH 722 0
DWIDTH 12 0
BBX 12 15 1 0
BITMAP
0C00
0400
0200
0000
0E10
3190
40A0
40C0
8040
8040
80C0
C080
4180
6300
1C00
ENDCHAR
STARTCHAR uni1EDD
ENCODING 7901
SWIDTH 500 0
DWIDTH 8 0
BBX 10 12 0 0
BITMAP
1800
0800
0400
0000
1C40
6640
4280
C300
8600
8400
CC00
7000
ENDCHAR
STARTCHAR uni1EE0
ENCODING 7904
SWIDTH 722 0
DWIDTH 12 0
BBX 12 14 1 0
BITMAP
0680
0B00
0000
0E10
3190
40A0
40C0
8040
8040
80C0
C080
4180
6300
1C00
ENDCHAR
STARTCHAR uni1EE1
ENCODING 7905
SWIDTH 500 0
DWIDTH 8 0
BBX 10 11 0 0
BITMAP
0D00
1600
0000
1C40
6640
4280
C300
8600
8400
CC00
7000
ENDCHAR
STARTCHAR uni1EE2
ENCODING 7906
SWIDTH 722 0
DWIDTH 12 0
BBX 12 14 1 -3
BITMAP
0E10
3190
40A0
40C0
8040
8040
80C0
C080
4180
6300
1C00
0000
0400
0400
ENDCHAR
STARTCHAR uni1EE3
ENCODING 7907
SWIDTH 500 0
DWIDTH 8 0
BBX 10 11 0 -3
BITMAP
1C40
6640
4280
C300
8600
8400
CC00
7000
0000
1000
1000
ENDCHAR
STARTCHAR uni1EE4
ENCODING 7908
SWIDTH 722 0
DWIDTH 12 0
BBX 10 14 2 -3
BITMAP
71C0
2080
6080
4100
4100
C100
8200
8200
8200
8400
7800
0000
1000
1000
ENDCHAR
STARTCHAR uni1EE5
ENCODING 7909
SWIDTH 500 0
DWIDTH 8 0
BBX 7 11 0 -3
BITMAP
62
22
66
44
CC
98
AA
CC
00
10
10
ENDCHAR
STARTCHAR uni1EE8
ENCODING 7912
SWIDTH 722 0
DWIDTH 12 0
BBX 12 15 2 0
BITMAP
0300
0200
0400
0000
71D0
2090
60A0
4140
4100
C100
8200
8200
8200
8400
7800
ENDCHAR
STARTCHAR uni1EE9
ENCODING 7913
SWIDTH 500 0
DWIDTH 8 0
BBX 10 12 0 0
BITMAP
0600
0400
0800
0000
6240
2240
6680
4500
CC00
9800
AA00
CC00
ENDCHAR
STARTCHAR uni1EEA
ENCODING 7914
SWIDTH 722 0
DWIDTH 12 0
BBX 12 15 2 0
BITMAP
0C00
0400
0200
0000
71D0
2090
60A0
4140
4100
C100
8200
8200
8200
8400
7800
ENDCHAR
STARTCHAR uni1EEB
ENCODING 7915
SWIDTH 500 0
DWIDTH 8 0
BBX 10 12 0 0
BITMAP
1800
0800
0400
0000
6240
2240
6680
4500
CC00
9800
AA00
CC00
ENDCHAR
STARTCHAR uni1EEE
ENCODING 7918
SWIDTH 722 0
DWIDTH 12 0
BBX 12 14 2 0
BITMAP
0680
0B00
0000
71D0
2090
60A0
4140
4100
C100
8200
8200
8200
8400
7800
ENDCHAR
STARTCHAR uni1EEF
ENCODING 7919
SWIDTH 500 0
DWIDTH 8 0
BBX 10 11 0 0
BITMAP
0D00
1600
0000
6240
2240
6680
4500
CC00
9800
AA00
CC00
ENDCHAR
STARTCHAR uni1EF0
ENCODING 7920
SWIDTH 722 0
DWIDTH 12 0
BBX 12 14 2 -3
BITMAP
71D0
2090
60A0
4140
4100
C100
8200
8200
8200
8400
7800
0000
0800
0800
ENDCHAR
STARTCHAR uni1EF1
ENCODING 7921
SWIDTH 500 0
DWIDTH 8 0
BBX 10 11 0 -3
BITMAP
6240
2240
6680
4500
CC00
9800
AA00
CC00
0000
1000
1000
ENDCHAR
STARTCHAR Ygrave
ENCODING 7922
SWIDTH 556 0
DWIDTH 9 0
BBX 9 15 1 0
BITMAP
3000
1000
0800
0000
E380
4100
6200
2400
2800
1000
1000
3000
2000
2000
7000
ENDCHAR
STARTCHAR ygrave
ENCODING 7923
SWIDTH 444 0
DWIDTH 7 0
BBX 7 16 -1 -4
BITMAP
30
10
08
00
66
22
22
32
14
14
18
18
10
20
A0
C0
ENDCHAR
STARTCHAR uni1EF4
ENCODING 7924
SWIDTH 556 0
DWIDTH 9 0
BBX 9 14 1 -3
BITMAP
E380
4100
6200
2400
2800
1000
1000
3000
2000
2000
7000
0000
1000
1000
ENDCHAR
STARTCHAR uni1EF5
ENCODING 7925
SWIDTH 444 0
DWIDTH 7 0
BBX 7 15 -1 -7
BITMAP
66
22
22
32
14
14
18
18
10
20
A0
C0
00
20
20
ENDCHAR
STARTCHAR uni1EF8
ENCODING 7928
SWIDTH 556 0
DWIDTH 9 0
BBX 9 14 1 0
BITMAP
1A00
2C00
0000
E380
4100
6200
2400
2800
1000
1000
3000
2000
2000
7000
ENDCHAR
STARTCHAR uni1EF9
ENCODING 7929
SWIDTH 444 0
DWIDTH 7 0
BBX 7 15 -1 -4
BITMAP
1A
2C
00
66
22
22
32
14
14
18
18
10
20
A0
C0
ENDCHAR
STARTCHAR uni2000
ENCODING 8192
SWIDTH 500 0
DWIDTH 8 0
BBX 1 1 0 0
BITMAP
00
ENDCHAR
STARTCHAR uni2001
ENCODING 8193
SWIDTH 1000 0
DWIDTH 17 0
BBX 1 1 0 0
BITMAP
00
ENDCHAR
STARTCHAR uni2002
ENCODING 8194
SWIDTH 500 0
DWIDTH 8 0
BBX 1 1 0 0
BITMAP
00
ENDCHAR
STARTCHAR uni2003
ENCODING 8195
SWIDTH 1000 0
DWIDTH 17 0
BBX 1 1 0 0
BITMAP
00
ENDCHAR
STARTCHAR uni2004
ENCODING 8196
SWIDTH 333 0
DWIDTH 6 0
BBX 1 1 0 0
BITMAP
00
ENDCHAR
STARTCHAR uni2005
ENCODING 8197
SWIDTH 250 0
DWIDTH 4 0
BBX 1 1 0 0
BITMAP
00
ENDCHAR
STARTCHAR uni2006
ENCODING 8198
SWIDTH 167 0
DWIDTH 3 0
BBX 1 1 0 0
BITMAP
00
ENDCHAR
STARTCHAR uni2007
ENCODING 8199
SWIDTH 500 0
DWIDTH 8 0
BBX 1 1 0 0
BITMAP
00
ENDCHAR
STARTCHAR uni2008
ENCODING 8200
SWIDTH 250 0
DWIDTH 4 0
BBX 1 1 0 0
BITMAP
00
ENDCHAR
STARTCHAR uni2009
ENCODING 8201
SWIDTH 200 0
DWIDTH 3 0
BBX 1 1 0 0
BITMAP
00
ENDCHAR
STARTCHAR uni200A
ENCODING 8202
SWIDTH 100 0
DWIDTH 2 0
BBX 1 1 0 0
BITMAP
00
ENDCHAR
STARTCHAR uni200B
ENCODING 8203
SWIDTH 0 0
DWIDTH 0 0
BBX 1 1 0 0
BITMAP
00
ENDCHAR
STARTCHAR uni2010
ENCODING 8208
SWIDTH 333 0
DWIDTH 5 0
BBX 4 1 0 3
BITMAP
F0
ENDCHAR
STARTCHAR uni2011
ENCODING 8209
SWIDTH 333 0
DWIDTH 5 0
BBX 4 1 0 3
BITMAP
F0
ENDCHAR
STARTCHAR figuredash
ENCODING 8210
SWIDTH 500 0
DWIDTH 8 0
BBX 8 1 0 3
BITMAP
FF
ENDCHAR
STARTCHAR endash
ENCODING 8211
SWIDTH 500 0
DWIDTH 8 0
BBX 8 1 0 3
BITMAP
FF
ENDCHAR
STARTCHAR emdash
ENCODING 8212
SWIDTH 889 0
DWIDTH 14 0
BBX 14 1 0 3
BITMAP
FFFC
ENDCHAR
STARTCHAR afii00208
ENCODING 8213
SWIDTH 889 0
DWIDTH 14 0
BBX 14 1 0 3
BITMAP
FFFC
ENDCHAR
STARTCHAR quoteleft
ENCODING 8216
SWIDTH 333 0
DWIDTH 6 0
BBX 3 4 2 6
BITMAP
20
40
80
80
ENDCHAR
STARTCHAR quoteright
ENCODING 8217
SWIDTH 333 0
DWIDTH 6 0
BBX 3 4 1 6
BITMAP
20
20
40
80
ENDCHAR
STARTCHAR quotesinglbase
ENCODING 8218
SWIDTH 333 0
DWIDTH 6 0
BBX 3 4 1 -2
BITMAP
20
20
40
80
ENDCHAR
STARTCHAR quotereversed
ENCODING 8219
SWIDTH 333 0
DWIDTH 6 0
BBX 3 4 1 6
BITMAP
80
80
40
20
ENDCHAR
STARTCHAR quotedblleft
ENCODING 8220
SWIDTH 556 0
DWIDTH 9 0
BBX 6 4 2 6
BITMAP
24
48
90
90
ENDCHAR
STARTCHAR quotedblright
ENCODING 8221
SWIDTH 556 0
DWIDTH 9 0
BBX 6 4 0 6
BITMAP
24
24
48
90
ENDCHAR
STARTCHAR quotedblbase
ENCODING 8222
SWIDTH 556 0
DWIDTH 9 0
BBX 6 4 0 -2
BITMAP
24
24
48
90
ENDCHAR
STARTCHAR uni201F
ENCODING 8223
SWIDTH 556 0
DWIDTH 9 0
BBX 6 4 0 6
BITMAP
90
90
48
24
ENDCHAR
STARTCHAR dagger
ENCODING 8224
SWIDTH 500 0
DWIDTH 8 0
BBX 6 13 1 -1
BITMAP
08
08
10
FC
20
20
20
60
40
40
40
80
80
ENDCHAR
STARTCHAR daggerdbl
ENCODING 8225
SWIDTH 500 0
DWIDTH 8 0
BBX 8 13 0 -1
BITMAP
04
04
08
7F
08
08
18
10
10
FE
20
20
20
ENDCHAR
STARTCHAR bullet
ENCODING 8226
SWIDTH 350 0
DWIDTH 6 0
BBX 4 4 1 3
BITMAP
60
F0
F0
60
ENDCHAR
STARTCHAR ellipsis
ENCODING 8230
SWIDTH 889 0
DWIDTH 11 0
BBX 9 2 1 0
BITMAP
8880
8880
ENDCHAR
STARTCHAR perthousand
ENCODING 8240
SWIDTH 1000 0
DWIDTH 17 0
BBX 17 11 0 0
BITMAP
308000
4F0000
890000
8A0000
920000
64C300
052480
0A2880
0A2880
124900
118600
ENDCHAR
STARTCHAR guilsinglleft
ENCODING 8249
SWIDTH 333 0
DWIDTH 6 0
BBX 4 6 0 0
BITMAP
10
20
40
80
40
20
ENDCHAR
STARTCHAR guilsinglright
ENCODING 8250
SWIDTH 333 0
DWIDTH 6 0
BBX 4 6 1 0
BITMAP
40
20
10
20
40
80
ENDCHAR
STARTCHAR fraction
ENCODING 8260
SWIDTH 167 0
DWIDTH 3 0
BBX 6 11 -1 0
BITMAP
04
04
08
08
10
10
20
20
40
40
80
ENDCHAR
STARTCHAR oneinferior
ENCODING 8321
SWIDTH 300 0
DWIDTH 5 0
BBX 3 7 1 -4
BITMAP
20
60
20
20
40
40
E0
ENDCHAR
STARTCHAR twoinferior
ENCODING 8322
SWIDTH 300 0
DWIDTH 5 0
BBX 5 7 0 -4
BITMAP
30
48
08
10
20
48
F0
ENDCHAR
STARTCHAR threeinferior
ENCODING 8323
SWIDTH 300 0
DWIDTH 5 0
BBX 5 7 0 -4
BITMAP
30
48
08
30
08
88
70
ENDCHAR
STARTCHAR uni20A5
ENCODING 8357
SWIDTH 722 0
DWIDTH 12 0
BBX 11 11 0 -1
BITMAP
0100
0200
6660
2AA0
3720
6660
4440
CCC0
88A0
88C0
1000
ENDCHAR
STARTCHAR uni20A6
ENCODING 8358
SWIDTH 667 0
DWIDTH 11 0
BBX 13 11 -1 0
BITMAP
1838
0810
1C10
1FE0
1620
2220
3FE0
2140
41C0
4080
E080
ENDCHAR
STARTCHAR uni20A9
ENCODING 8361
SWIDTH 833 0
DWIDTH 14 0
BBX 15 11 0 0
BITMAP
E70E
4204
4208
6FF8
6710
2520
2FF0
3140
3180
2180
2100
ENDCHAR
STARTCHAR Euro
ENCODING 8364
SWIDTH 667 0
DWIDTH 11 0
BBX 12 11 -1 0
BITMAP
01D0
0630
0810
FF00
1000
2000
FF00
2000
3020
1840
0F80
ENDCHAR
STARTCHAR uni20AD
ENCODING 8365
SWIDTH 667 0
DWIDTH 11 0
BBX 10 11 0 0
BITMAP
1DC0
0880
1900
1200
1400
FFC0
2400
2600
6200
4300
E780
ENDCHAR
STARTCHAR uni2103
ENCODING 8451
SWIDTH 1047 0
DWIDTH 18 0
BBX 17 11 1 0
BITMAP
700E80
883180
884080
888000
708000
010000
010000
010000
018100
00C200
007C00
ENDCHAR
STARTCHAR uni2109
ENCODING 8457
SWIDTH 991 0
DWIDTH 17 0
BBX 16 11 1 0
BITMAP
707F
8821
8860
8840
7044
00F8
0088
0080
0180
0100
0380
ENDCHAR
STARTCHAR trademark
ENCODING 8482
SWIDTH 980 0
DWIDTH 16 0
BBX 16 7 0 4
BITMAP
FEC3
92C6
10A6
10AA
10AA
1092
39D7
ENDCHAR
STARTCHAR uni212A
ENCODING 8490
SWIDTH 667 0
DWIDTH 11 0
BBX 10 11 0 0
BITMAP
1DC0
0880
1900
1200
1400
3C00
2400
2600
6200
4300
E780
ENDCHAR
STARTCHAR uni212B
ENCODING 8491
SWIDTH 611 0
DWIDTH 10 0
BBX 11 15 -1 0
BITMAP
00C0
0120
0120
00C0
0080
0180
0280
0480
0880
0880
1F80
2080
2080
4080
E1C0
ENDCHAR
STARTCHAR uni2132
ENCODING 8498
SWIDTH 611 0
DWIDTH 10 0
BBX 10 11 0 0
BITMAP
01C0
0080
0180
0100
1100
1F00
2200
0200
0600
8400
FE00
ENDCHAR
STARTCHAR minus
ENCODING 8722
SWIDTH 675 0
DWIDTH 11 0
BBX 7 1 2 4
BITMAP
FE
ENDCHAR
STARTCHAR fraction
ENCODING 8725
SWIDTH 167 0
DWIDTH 3 0
BBX 6 11 -1 0
BITMAP
04
04
08
08
10
10
20
20
40
40
80
ENDCHAR
STARTCHAR periodcentered
ENCODING 8729
SWIDTH 250 0
DWIDTH 4 0
BBX 1 2 2 3
BITMAP
80
80
ENDCHAR
STARTCHAR uni2236
ENCODING 8758
SWIDTH 333 0
DWIDTH 5 0
BBX 3 7 1 0
BITMAP
20
20
00
00
00
80
80
ENDCHAR
STARTCHAR uni2259
ENCODING 8793
SWIDTH 675 0
DWIDTH 11 0
BBX 8 8 1 2
BITMAP
08
1C
22
00
FF
00
00
FF
ENDCHAR
STARTCHAR uni225A
ENCODING 8794
SWIDTH 675 0
DWIDTH 11 0
BBX 8 8 1 2
BITMAP
22
1C
08
00
FF
00
00
FF
ENDCHAR
STARTCHAR notequal
ENCODING 8800
SWIDTH 675 0
DWIDTH 11 0
BBX 8 11 1 -1
BITMAP
02
04
04
04
FF
08
08
FF
10
10
20
ENDCHAR
STARTCHAR equivalence
ENCODING 8801
SWIDTH 675 0
DWIDTH 11 0
BBX 8 5 0 2
BITMAP
FF
00
FF
00
FF
ENDCHAR
STARTCHAR uni2262
ENCODING 8802
SWIDTH 675 0
DWIDTH 11 0
BBX 8 11 0 -1
BITMAP
02
04
04
FF
08
FF
08
FF
10
10
20
ENDCHAR
STARTCHAR lessequal
ENCODING 8804
SWIDTH 675 0
DWIDTH 11 0
BBX 9 11 1 -2
BITMAP
0180
0600
1800
6000
8000
6000
1800
0600
0180
0000
FF80
ENDCHAR
STARTCHAR greaterequal
ENCODING 8805
SWIDTH 675 0
DWIDTH 11 0
BBX 9 11 2 -2
BITMAP
C000
3000
0C00
0300
0080
0300
0C00
3000
C000
0000
FF80
ENDCHAR
STARTCHAR uni226E
ENCODING 8814
SWIDTH 675 0
DWIDTH 11 0
BBX 9 11 1 -1
BITMAP
0200
0580
0600
1C00
6800
8800
6800
1800
1600
1180
2000
ENDCHAR
STARTCHAR uni226F
ENCODING 8815
SWIDTH 675 0
DWIDTH 11 0
BBX 9 11 2 -1
BITMAP
0200
C400
3400
0C00
0B00
0880
0B00
1C00
3000
D000
2000
ENDCHAR
STARTCHAR uni2270
ENCODING 8816
SWIDTH 675 0
DWIDTH 11 0
BBX 9 11 1 -2
BITMAP
0380
0600
1C00
6400
8800
6800
1800
1600
1180
1000
FF80
ENDCHAR
STARTCHAR uni2271
ENCODING 8817
SWIDTH 675 0
DWIDTH 11 0
BBX 9 11 2 -2
BITMAP
C200
3400
0C00
0700
0880
0B00
0C00
3000
D000
1000
FF80
ENDCHAR
STARTCHAR fi
ENCODING -1
SWIDTH 500 0
DWIDTH 8 0
BBX 9 15 -2 -4
BITMAP
0300
0500
0400
0400
3F80
0880
0980
1900
1300
1280
3300
2000
2000
A000
C000
ENDCHAR
STARTCHAR fl
ENCODING -1
SWIDTH 500 0
DWIDTH 8 0
BBX 10 15 -2 -4
BITMAP
03C0
0640
04C0
0480
3F80
0980
0900
1900
1300
1280
3300
2000
2000
A000
C000
ENDCHAR
ENDFONT
